<svg xmlns="http://www.w3.org/2000/svg" width="50.033" height="55.258" viewBox="0 0 50.033 55.258">
  <g id="atom" transform="translate(-24.208)">
    <path id="Path_9139" data-name="Path 9139" d="M70.459,29.191q-.745-.966-1.612-1.931.594-.689,1.129-1.381c3.671-4.76,4.714-9.078,2.935-12.159s-6.039-4.337-12-3.538q-.942.126-1.921.318-.333-.972-.7-1.88C56,3.062,52.782,0,49.225,0s-6.776,3.062-9.062,8.621q-.373.906-.7,1.88-.977-.19-1.921-.318c-5.958-.8-10.219.457-12,3.538s-.736,7.4,2.935,12.159q.533.691,1.129,1.381-.864.963-1.612,1.931c-3.671,4.76-4.714,9.078-2.935,12.159,1.429,2.475,4.46,3.773,8.686,3.773a24.977,24.977,0,0,0,3.311-.235q1.131-.152,2.315-.4c.248.743.512,1.46.795,2.147,2.287,5.559,5.505,8.621,9.062,8.621S56,52.2,58.287,46.637c.282-.686.547-1.4.795-2.147q1.181.244,2.315.4a24.977,24.977,0,0,0,3.311.235c4.226,0,7.257-1.3,8.686-3.773C75.173,38.269,74.13,33.951,70.459,29.191Zm-6.217-16.01c2.96,0,5.051.751,5.864,2.159,1.064,1.842.081,4.963-2.695,8.563q-.4.514-.833,1.029a53.092,53.092,0,0,0-5.438-4.5,51.912,51.912,0,0,0-1.227-6.819,24.12,24.12,0,0,1,4.329-.436ZM53.523,35.4c-1.455.84-2.892,1.594-4.3,2.264-1.406-.67-2.843-1.423-4.3-2.264-1.606-.928-3.144-1.909-4.594-2.929-.122-1.549-.188-3.165-.188-4.841,0-1.878.082-3.68.234-5.4,1.293-.888,2.652-1.745,4.064-2.561,1.623-.937,3.222-1.765,4.782-2.491,1.56.726,3.159,1.554,4.782,2.491,1.412.815,2.771,1.673,4.064,2.561.152,1.716.234,3.519.234,5.4,0,1.676-.066,3.292-.188,4.841-1.45,1.02-2.988,2-4.594,2.929Zm4.1,1.3c-.217,1.378-.48,2.684-.782,3.907-1.2-.349-2.452-.771-3.743-1.269q1.024-.544,2.043-1.131,1.268-.732,2.481-1.508ZM45.351,39.334c-1.291.5-2.542.919-3.743,1.268-.3-1.223-.565-2.529-.782-3.907q1.213.774,2.481,1.508Q44.326,38.791,45.351,39.334Zm-8.4-9.444c-1.025-.849-1.986-1.715-2.872-2.588q1.347-1.285,2.9-2.535-.062,1.417-.063,2.862Q36.907,28.767,36.946,29.89Zm3.969-11.876q.327-1.935.769-3.662c1.15.322,2.349.712,3.586,1.172q-1.227.64-2.447,1.344Q41.854,17.428,40.916,18.014Zm12.262-2.49c1.237-.46,2.436-.85,3.586-1.172q.44,1.723.769,3.662-.938-.585-1.908-1.146Q54.406,16.164,53.178,15.524Zm8.3,9.243q1.544,1.246,2.9,2.535c-.886.873-1.847,1.739-2.872,2.588q.039-1.122.039-2.26,0-1.444-.063-2.862ZM49.225,3.238c2.342,0,4.83,2.979,6.608,8.019a51.85,51.85,0,0,0-6.608,2.376,51.867,51.867,0,0,0-6.608-2.376C44.4,6.217,46.883,3.238,49.225,3.238ZM28.343,15.34c.813-1.408,2.9-2.159,5.864-2.159a24.114,24.114,0,0,1,4.329.437,51.9,51.9,0,0,0-1.227,6.819,53.093,53.093,0,0,0-5.438,4.5q-.435-.515-.833-1.029C28.262,20.3,27.28,17.182,28.343,15.34Zm5.381,26.55c-2.96,0-5.051-.751-5.864-2.159-1.064-1.842-.081-4.963,2.695-8.563q.593-.769,1.273-1.539a51.62,51.62,0,0,0,5.418,4.6,52.816,52.816,0,0,0,1.224,7.142A24.686,24.686,0,0,1,33.724,41.89Zm15.5,10.131c-2.387,0-4.926-3.1-6.71-8.315a52.836,52.836,0,0,0,6.71-2.481,52.836,52.836,0,0,0,6.71,2.481C54.151,48.924,51.612,52.021,49.225,52.021ZM70.59,39.731c-1.2,2.074-5.171,2.722-10.609,1.643A52.8,52.8,0,0,0,61.2,34.232a51.6,51.6,0,0,0,5.418-4.6q.678.769,1.273,1.539C70.671,34.768,71.654,37.889,70.59,39.731Z" fill="#fb5012"/>
    <circle id="Ellipse_398" data-name="Ellipse 398" cx="5.002" cy="5.002" r="5.002" transform="translate(44.222 22.627)" fill="#800020"/>
  </g>
</svg>
