<svg xmlns="http://www.w3.org/2000/svg" width="94" height="94" viewBox="0 0 94 94">
  <g id="Group_12297" data-name="Group 12297" transform="translate(-527 -11129)">
    <g id="Path_8635" data-name="Path 8635" transform="translate(527 11129)" fill="#fff">
      <path d="M 47 93 C 40.78960037231445 93 34.76549911499023 91.78391265869141 29.09502410888672 89.385498046875 C 23.61750030517578 87.06870269775391 18.69796180725098 83.75180053710938 14.47308731079102 79.52690887451172 C 10.24820041656494 75.30204010009766 6.931300163269043 70.38249969482422 4.614500045776367 64.90497589111328 C 2.216087579727173 59.23450088500977 1 53.21039962768555 1 47 C 1 40.78960037231445 2.216087579727173 34.76549911499023 4.614500045776367 29.09502410888672 C 6.931300163269043 23.61750030517578 10.24820041656494 18.69796180725098 14.47308731079102 14.47308731079102 C 18.69796180725098 10.24820041656494 23.61750030517578 6.931300163269043 29.09502410888672 4.614500045776367 C 34.76549911499023 2.216087579727173 40.78960037231445 1 47 1 C 53.21039962768555 1 59.23450088500977 2.216087579727173 64.90497589111328 4.614500045776367 C 70.38249969482422 6.931300163269043 75.30204010009766 10.24820041656494 79.52690887451172 14.47308731079102 C 83.75180053710938 18.69796180725098 87.06870269775391 23.61750030517578 89.385498046875 29.09502410888672 C 91.78391265869141 34.76549911499023 93 40.78960037231445 93 47 C 93 53.21039962768555 91.78391265869141 59.23450088500977 89.385498046875 64.90497589111328 C 87.06870269775391 70.38249969482422 83.75180053710938 75.30204010009766 79.52690887451172 79.52690887451172 C 75.30204010009766 83.75180053710938 70.38249969482422 87.06870269775391 64.90497589111328 89.385498046875 C 59.23450088500977 91.78391265869141 53.21039962768555 93 47 93 Z" stroke="none"/>
      <path d="M 47 2 C 40.92416000366211 2 35.03112030029297 3.189521789550781 29.48458862304688 5.535507202148438 C 24.12625122070312 7.8018798828125 19.31356048583984 11.04682922363281 15.18019866943359 15.18019866943359 C 11.04682922363281 19.31356048583984 7.8018798828125 24.12625122070312 5.535507202148438 29.48458862304688 C 3.189521789550781 35.03112030029297 2 40.92416000366211 2 47 C 2 53.07583999633789 3.189521789550781 58.96887969970703 5.535507202148438 64.51541137695312 C 7.8018798828125 69.87374877929688 11.04682922363281 74.68643951416016 15.18019866943359 78.81980133056641 C 19.31356048583984 82.95317077636719 24.12625122070312 86.1981201171875 29.48458862304688 88.46449279785156 C 35.03112030029297 90.81047821044922 40.92416000366211 92 47 92 C 53.07583999633789 92 58.96887969970703 90.81047821044922 64.51541137695312 88.46449279785156 C 69.87374877929688 86.1981201171875 74.68643951416016 82.95317077636719 78.81980133056641 78.81980133056641 C 82.95317077636719 74.68643951416016 86.1981201171875 69.87374877929688 88.46449279785156 64.51541137695312 C 90.81047821044922 58.96887969970703 92 53.07583999633789 92 47 C 92 40.92416000366211 90.81047821044922 35.03112030029297 88.46449279785156 29.48458862304688 C 86.1981201171875 24.12625122070312 82.95317077636719 19.31356048583984 78.81980133056641 15.18019866943359 C 74.68643951416016 11.04682922363281 69.87374877929688 7.8018798828125 64.51541137695312 5.535507202148438 C 58.96887969970703 3.189521789550781 53.07583999633789 2 47 2 M 47 0 C 72.95738220214844 0 94 21.04261016845703 94 47 C 94 72.95738220214844 72.95738220214844 94 47 94 C 21.04261016845703 94 0 72.95738220214844 0 47 C 0 21.04261016845703 21.04261016845703 0 47 0 Z" stroke="none" fill="#fb5012"/>
    </g>
    <g id="Computer" transform="translate(544.724 11146.725)">
      <path id="Path_8341" data-name="Path 8341" d="M54.552,40H4v4.514a2.708,2.708,0,0,0,2.708,2.708H51.844a2.708,2.708,0,0,0,2.708-2.708ZM29.276,46.319a2.708,2.708,0,1,1,2.708-2.708A2.708,2.708,0,0,1,29.276,46.319Z" transform="translate(0 -3.502)" fill="#fb5012"/>
      <circle id="Ellipse_283" data-name="Ellipse 283" cx="1" cy="1" r="1" transform="translate(28.276 39)" fill="#800020"/>
      <path id="Path_8342" data-name="Path 8342" d="M43.276,58.9a.9.9,0,0,0-.9-.9H18.9a.9.9,0,0,0-.9.9v.9H43.276Z" transform="translate(-1.362 -5.254)" fill="#800020"/>
      <path id="Path_8343" data-name="Path 8343" d="M54.552,6.708A2.708,2.708,0,0,0,51.844,4H6.708A2.708,2.708,0,0,0,4,6.708V34.692H54.552Z" fill="#fb5012"/>
      <path id="Path_8344" data-name="Path 8344" d="M25.474,50l-2.031,5.416H38.892L36.861,50Z" transform="translate(-1.892 -4.475)" fill="#800020"/>
    </g>
  </g>
</svg>
