<svg xmlns="http://www.w3.org/2000/svg" width="72.167" height="72.167" viewBox="0 0 72.167 72.167">
  <g id="Group_13169" data-name="Group 13169" transform="translate(-234 -6969.595)">
    <g id="Group_13073" data-name="Group 13073" transform="translate(0 -2708.338)">
      <g id="Path_8532" data-name="Path 8532" transform="translate(234 9677.933)" fill="none">
        <path d="M36.083,0A36.083,36.083,0,1,1,0,36.083,36.083,36.083,0,0,1,36.083,0Z" stroke="none"/>
        <path d="M 36.08349609375 1.999992370605469 C 31.48137283325195 1.999992370605469 27.01797485351562 2.900886535644531 22.8172721862793 4.677627563476562 C 18.75887298583984 6.394187927246094 15.11363983154297 8.852008819580078 11.98281860351562 11.98281860351562 C 8.852008819580078 15.11363983154297 6.394187927246094 18.75887298583984 4.677627563476562 22.8172721862793 C 2.900886535644531 27.01797485351562 1.999992370605469 31.48137283325195 1.999992370605469 36.08349609375 C 1.999992370605469 40.68561553955078 2.900886535644531 45.14901733398438 4.677627563476562 49.34971618652344 C 6.394187927246094 53.40811920166016 8.852008819580078 57.05335235595703 11.98281860351562 60.18417358398438 C 15.11363983154297 63.31498718261719 18.75887298583984 65.77280426025391 22.8172721862793 67.48936462402344 C 27.01797485351562 69.26610565185547 31.48137283325195 70.16699981689453 36.08349609375 70.16699981689453 C 40.68561553955078 70.16699981689453 45.14901733398438 69.26610565185547 49.34971618652344 67.48936462402344 C 53.40811920166016 65.77280426025391 57.05335235595703 63.31498718261719 60.18417358398438 60.18417358398438 C 63.31498718261719 57.05335235595703 65.77280426025391 53.40811920166016 67.48936462402344 49.34971618652344 C 69.26610565185547 45.14901733398438 70.16699981689453 40.68561553955078 70.16699981689453 36.08349609375 C 70.16699981689453 31.48137283325195 69.26610565185547 27.01797485351562 67.48936462402344 22.8172721862793 C 65.77280426025391 18.75887298583984 63.31498718261719 15.11363983154297 60.18417358398438 11.98281860351562 C 57.05335235595703 8.852008819580078 53.40811920166016 6.394187927246094 49.34971618652344 4.677627563476562 C 45.14901733398438 2.900886535644531 40.68561553955078 1.999992370605469 36.08349609375 1.999992370605469 M 36.08349609375 -7.62939453125e-06 C 56.01186370849609 -7.62939453125e-06 72.16699981689453 16.15512847900391 72.16699981689453 36.08349609375 C 72.16699981689453 56.01186370849609 56.01186370849609 72.16699981689453 36.08349609375 72.16699981689453 C 16.15512847900391 72.16699981689453 -7.62939453125e-06 56.01186370849609 -7.62939453125e-06 36.08349609375 C -7.62939453125e-06 16.15512847900391 16.15512847900391 -7.62939453125e-06 36.08349609375 -7.62939453125e-06 Z" stroke="none" fill="#fb5012"/>
      </g>
    </g>
    <g id="app-development_4_" data-name="app-development (4)" transform="translate(244.319 6982.504)">
      <path id="Path_9215" data-name="Path 9215" d="M31.589,35.32v1.04h-19.3V8.638h19.3v7.934A1.889,1.889,0,0,1,32.4,16.4h1.447V5.071A2.6,2.6,0,0,0,31.266,2.5H12.608a2.578,2.578,0,0,0-2.571,2.571v36.2a2.574,2.574,0,0,0,2.571,2.571H31.266a2.584,2.584,0,0,0,2.578-2.571v-5.7H32.558a1.89,1.89,0,0,1-.969-.258ZM20.3,4.923h3.282a.646.646,0,1,1,0,1.292H20.3a.646.646,0,1,1,0-1.292Zm3.779,36.069H19.8a.646.646,0,1,1,0-1.292h4.277a.646.646,0,1,1,0,1.292Z" fill="#fb5012"/>
      <path id="Path_9216" data-name="Path 9216" d="M34.146,23.87a.646.646,0,0,0,.914,0l2.7-2.725a.646.646,0,0,0,0-.909l-2.7-2.725a.646.646,0,0,0-.918.909l2.25,2.271-2.25,2.271a.646.646,0,0,0,0,.914Z" transform="translate(-8.22 -5.092)" fill="#800020"/>
      <path id="Path_9217" data-name="Path 9217" d="M20.106,17.5a.645.645,0,0,0-.914,0l-2.7,2.725a.646.646,0,0,0,0,.909l2.7,2.725a.646.646,0,1,0,.918-.909l-2.249-2.271,2.249-2.271a.646.646,0,0,0,0-.914Z" transform="translate(-2.155 -5.091)" fill="#800020"/>
      <path id="Path_9218" data-name="Path 9218" d="M27.748,14.6l-3.792,9.543a.646.646,0,1,0,1.2.477l3.792-9.543a.646.646,0,1,0-1.2-.477Z" transform="translate(-4.768 -4.02)" fill="#800020"/>
      <path id="Path_9219" data-name="Path 9219" d="M48.673,32.467l-1.419-.16a6.235,6.235,0,0,0-.725-1.724v-.006l.839-1.183a.678.678,0,0,0-.074-.871l-1.016-1.016a.678.678,0,0,0-.9-.05l-1.113.889a6.256,6.256,0,0,0-1.735-.7l-.242-1.438a.678.678,0,0,0-.668-.565H40.177a.678.678,0,0,0-.673.6l-.16,1.424a6.415,6.415,0,0,0-1.724.725l-1.188-.844a.678.678,0,0,0-.872.074l-1.012,1.015a.678.678,0,0,0-.05.9l.891,1.12a6.1,6.1,0,0,0-.708,1.735l-1.433.241a.678.678,0,0,0-.565.668v1.436a.678.678,0,0,0,.6.673l1.414.16a6.358,6.358,0,0,0,.731,1.729v.006l-.838,1.177a.678.678,0,0,0,.073.872l1.016,1.016a.678.678,0,0,0,.9.051l1.119-.89a6.293,6.293,0,0,0,1.729.7l.242,1.438a.678.678,0,0,0,.668.565H41.78a.678.678,0,0,0,.673-.6l.16-1.424a6.069,6.069,0,0,0,1.724-.725l1.188.844a.678.678,0,0,0,.872-.074l1.013-1.016a.678.678,0,0,0,.051-.9l-.886-1.114a6.365,6.365,0,0,0,.7-1.741l1.433-.242a.678.678,0,0,0,.565-.668V33.14a.678.678,0,0,0-.6-.673Zm-7.692,4.257a2.785,2.785,0,1,1,2.78-2.785A2.785,2.785,0,0,1,40.981,36.724Z" transform="translate(-7.783 -7.953)" fill="#800020"/>
    </g>
  </g>
</svg>
