<svg xmlns="http://www.w3.org/2000/svg" width="49.004" height="49.005" viewBox="0 0 49.004 49.005">
  <g id="Group_12853" data-name="Group 12853" transform="translate(-720 -9955.742)">
    <g id="Ellipse_332" data-name="Ellipse 332" transform="translate(720 9955.742)" fill="none" stroke="#fb5012" stroke-width="2">
      <circle cx="24.502" cy="24.502" r="24.502" stroke="none"/>
      <circle cx="24.502" cy="24.502" r="23.502" fill="none"/>
    </g>
    <g id="programming_2_" data-name="programming (2)" transform="translate(731.324 9969.18)">
      <g id="Group_12598" data-name="Group 12598" transform="translate(0 0)">
        <path id="Path_8679" data-name="Path 8679" d="M0,177.711v15.1H26.356v-15.1Zm15.841,4.97,1.092-1.092,3.652,3.652-3.652,3.652L15.841,187.8l2.56-2.56Zm-2.318-2.549,1.508.335-2.2,9.884-1.508-.335Zm-4.1,1.457,1.092,1.092-2.56,2.56,2.56,2.56-1.092,1.092-3.652-3.652Z" transform="translate(0 -170.675)" fill="#fb5012"/>
        <path id="Path_8680" data-name="Path 8680" d="M26.356,46.535V41.044H0v5.491ZM5.3,44.551H3.754V43.006H5.3Zm3.228,0H6.982V43.006H8.526Zm3.228,0H10.21V43.006h1.544Z" transform="translate(0 -41.044)" fill="#800020"/>
      </g>
    </g>
  </g>
</svg>
