<svg xmlns="http://www.w3.org/2000/svg" width="72.167" height="72.167" viewBox="0 0 72.167 72.167">
  <g id="Group_13102" data-name="Group 13102" transform="translate(-183.5 -3201.873)">
    <g id="Group_13094" data-name="Group 13094" transform="translate(-23.5 -1009.616)">
      <g id="Group_12528" data-name="Group 12528" transform="translate(0 -1537.411)">
        <g id="Path_8452" data-name="Path 8452" transform="translate(207 5748.9)" fill="none">
          <path d="M36.083,0A36.083,36.083,0,1,1,0,36.083,36.083,36.083,0,0,1,36.083,0Z" stroke="none"/>
          <path d="M 36.08349609375 1.999992370605469 C 31.48137283325195 1.999992370605469 27.01797485351562 2.900886535644531 22.8172721862793 4.677627563476562 C 18.75887298583984 6.394187927246094 15.11363983154297 8.852008819580078 11.98281860351562 11.98281860351562 C 8.852008819580078 15.11363983154297 6.394187927246094 18.75887298583984 4.677627563476562 22.8172721862793 C 2.900886535644531 27.01797485351562 1.999992370605469 31.48137283325195 1.999992370605469 36.08349609375 C 1.999992370605469 40.68561553955078 2.900886535644531 45.14901733398438 4.677627563476562 49.34971618652344 C 6.394187927246094 53.40811920166016 8.852008819580078 57.05335235595703 11.98281860351562 60.18417358398438 C 15.11363983154297 63.31498718261719 18.75887298583984 65.77280426025391 22.8172721862793 67.48936462402344 C 27.01797485351562 69.26610565185547 31.48137283325195 70.16699981689453 36.08349609375 70.16699981689453 C 40.68561553955078 70.16699981689453 45.14901733398438 69.26610565185547 49.34971618652344 67.48936462402344 C 53.40811920166016 65.77280426025391 57.05335235595703 63.31498718261719 60.18417358398438 60.18417358398438 C 63.31498718261719 57.05335235595703 65.77280426025391 53.40811920166016 67.48936462402344 49.34971618652344 C 69.26610565185547 45.14901733398438 70.16699981689453 40.68561553955078 70.16699981689453 36.08349609375 C 70.16699981689453 31.48137283325195 69.26610565185547 27.01797485351562 67.48936462402344 22.8172721862793 C 65.77280426025391 18.75887298583984 63.31498718261719 15.11363983154297 60.18417358398438 11.98281860351562 C 57.05335235595703 8.852008819580078 53.40811920166016 6.394187927246094 49.34971618652344 4.677627563476562 C 45.14901733398438 2.900886535644531 40.68561553955078 1.999992370605469 36.08349609375 1.999992370605469 M 36.08349609375 -7.62939453125e-06 C 56.01186370849609 -7.62939453125e-06 72.16699981689453 16.15512847900391 72.16699981689453 36.08349609375 C 72.16699981689453 56.01186370849609 56.01186370849609 72.16699981689453 36.08349609375 72.16699981689453 C 16.15512847900391 72.16699981689453 -7.62939453125e-06 56.01186370849609 -7.62939453125e-06 36.08349609375 C -7.62939453125e-06 16.15512847900391 16.15512847900391 -7.62939453125e-06 36.08349609375 -7.62939453125e-06 Z" stroke="none" fill="#fb5012"/>
        </g>
      </g>
    </g>
    <g id="app-development_3_" data-name="app-development (3)" transform="translate(195.501 3216.729)">
      <g id="Group_13101" data-name="Group 13101" transform="translate(9.155 2)">
        <path id="Path_9146" data-name="Path 9146" d="M33.63,23.146a.6.6,0,0,0,.85,0l2.511-2.534a.6.6,0,0,0,0-.846L34.48,17.228a.6.6,0,1,0-.854.845l2.092,2.112L33.626,22.3A.6.6,0,0,0,33.63,23.146Z" transform="translate(-18.854 -8.007)" fill="#fb5012"/>
        <path id="Path_9147" data-name="Path 9147" d="M19.058,17.223a.6.6,0,0,0-.85,0L15.7,19.762a.6.6,0,0,0,0,.846l2.511,2.534a.6.6,0,0,0,.854-.845L16.97,20.184l2.092-2.112a.6.6,0,0,0,0-.85Z" transform="translate(-11.697 -8.007)" fill="#fb5012"/>
        <path id="Path_9148" data-name="Path 9148" d="M27.6,13.924a.6.6,0,0,0-.78.336l-3.527,8.875a.6.6,0,0,0,1.117.444L27.935,14.7a.6.6,0,0,0-.337-.78Z" transform="translate(-14.781 -6.743)" fill="#fb5012"/>
        <path id="Path_9149" data-name="Path 9149" d="M46.07,36.23a3.187,3.187,0,1,1-3.184-3.19A3.191,3.191,0,0,1,46.07,36.23Z" transform="translate(-21.346 -14.39)" fill="#fb5012"/>
        <path id="Path_9150" data-name="Path 9150" d="M38.476,21.942,37,21.773a6.59,6.59,0,0,0-.433-1.021l.865-1.226a.593.593,0,0,0-.06-.769l-1.724-1.718a.6.6,0,0,0-.8-.048l-1.16.931a6.333,6.333,0,0,0-1.027-.415l-.246-1.484a.6.6,0,0,0-.595-.5H31.3V4.391A2.42,2.42,0,0,0,28.9,2H11.546A2.4,2.4,0,0,0,9.155,4.391v33.67a2.4,2.4,0,0,0,2.391,2.391H28.9a2.4,2.4,0,0,0,2.4-2.391v-5.9H32a.6.6,0,0,0,.6-.535l.168-1.484a6.849,6.849,0,0,0,1.015-.427l1.226.871a.61.61,0,0,0,.775-.066L37.5,28.8A.591.591,0,0,0,37.538,28l-.925-1.166a6.8,6.8,0,0,0,.415-1.027l1.478-.252a.6.6,0,0,0,.5-.589V22.536a.594.594,0,0,0-.535-.595ZM20.222,4.253h3.058a.6.6,0,1,1,0,1.2H20.222a.6.6,0,1,1,0-1.2ZM22.947,37.8H17.5a.6.6,0,1,1,0-1.2h5.447a.6.6,0,1,1,0,1.2Zm7.147-4.31H10.357V7.708H30.094v7.817h-.709a.6.6,0,0,0-.6.535l-.162,1.484a6.584,6.584,0,0,0-1.015.427L26.375,17.1a.594.594,0,0,0-.769.066l-1.718,1.718a.6.6,0,0,0-.042.8l.925,1.166a6.332,6.332,0,0,0-.415,1.027l-1.478.246a.611.611,0,0,0-.5.595V25.15a.6.6,0,0,0,.535.595l1.478.168a6.68,6.68,0,0,0,.433,1.021l-.865,1.22a.6.6,0,0,0,.066.775l1.718,1.718a.6.6,0,0,0,.8.042l1.166-.925a6.835,6.835,0,0,0,1.021.409l.246,1.484a.6.6,0,0,0,.595.5h.529v1.328Zm7.715-9.03-1.358.228a.6.6,0,0,0-.487.457,5.5,5.5,0,0,1-.583,1.454.589.589,0,0,0,.048.673l.835,1.057-.973.985-1.13-.805a.6.6,0,0,0-.661-.018,5.016,5.016,0,0,1-1.43.6.609.609,0,0,0-.457.517l-.15,1.352H30.07L29.842,29.6a.59.59,0,0,0-.451-.481,5.478,5.478,0,0,1-1.442-.589.6.6,0,0,0-.679.048l-1.063.841-.979-.979.793-1.112a.631.631,0,0,0,.108-.355.646.646,0,0,0-.084-.318,5.217,5.217,0,0,1-.613-1.442.589.589,0,0,0-.511-.445l-1.346-.156V23.227L24.933,23a.6.6,0,0,0,.487-.457,4.961,4.961,0,0,1,.589-1.442.608.608,0,0,0-.042-.685l-.847-1.063.979-.979,1.124.8a.6.6,0,0,0,.661.024,5.2,5.2,0,0,1,1.442-.607.6.6,0,0,0,.445-.511l.15-1.352h1.394l.228,1.358a.6.6,0,0,0,.451.487,5.065,5.065,0,0,1,1.448.589.6.6,0,0,0,.679-.048l1.057-.847.979.985-.793,1.118a.617.617,0,0,0-.108.354.641.641,0,0,0,.084.312,5.187,5.187,0,0,1,.607,1.436.6.6,0,0,0,.517.451l1.346.15v1.388Z" transform="translate(-9.155 -2)" fill="#800020"/>
      </g>
    </g>
  </g>
</svg>
