<svg xmlns="http://www.w3.org/2000/svg" width="72.167" height="72.167" viewBox="0 0 72.167 72.167">
  <g id="Group_13133" data-name="Group 13133" transform="translate(-167 -5138.082)">
    <g id="Group_12495" data-name="Group 12495" transform="translate(-613 1989.089)">
      <g id="Path_8548" data-name="Path 8548" transform="translate(780 3148.993)" fill="none">
        <path d="M36.083,0A36.083,36.083,0,1,1,0,36.083,36.083,36.083,0,0,1,36.083,0Z" stroke="none"/>
        <path d="M 36.08349609375 1.999992370605469 C 31.48137283325195 1.999992370605469 27.01797485351562 2.900886535644531 22.8172721862793 4.677627563476562 C 18.75887298583984 6.394187927246094 15.11363983154297 8.852008819580078 11.98281860351562 11.98281860351562 C 8.852008819580078 15.11363983154297 6.394187927246094 18.75887298583984 4.677627563476562 22.8172721862793 C 2.900886535644531 27.01797485351562 1.999992370605469 31.48137283325195 1.999992370605469 36.08349609375 C 1.999992370605469 40.68561553955078 2.900886535644531 45.14901733398438 4.677627563476562 49.34971618652344 C 6.394187927246094 53.40811920166016 8.852008819580078 57.05335235595703 11.98281860351562 60.18417358398438 C 15.11363983154297 63.31498718261719 18.75887298583984 65.77280426025391 22.8172721862793 67.48936462402344 C 27.01797485351562 69.26610565185547 31.48137283325195 70.16699981689453 36.08349609375 70.16699981689453 C 40.68561553955078 70.16699981689453 45.14901733398438 69.26610565185547 49.34971618652344 67.48936462402344 C 53.40811920166016 65.77280426025391 57.05335235595703 63.31498718261719 60.18417358398438 60.18417358398438 C 63.31498718261719 57.05335235595703 65.77280426025391 53.40811920166016 67.48936462402344 49.34971618652344 C 69.26610565185547 45.14901733398438 70.16699981689453 40.68561553955078 70.16699981689453 36.08349609375 C 70.16699981689453 31.48137283325195 69.26610565185547 27.01797485351562 67.48936462402344 22.8172721862793 C 65.77280426025391 18.75887298583984 63.31498718261719 15.11363983154297 60.18417358398438 11.98281860351562 C 57.05335235595703 8.852008819580078 53.40811920166016 6.394187927246094 49.34971618652344 4.677627563476562 C 45.14901733398438 2.900886535644531 40.68561553955078 1.999992370605469 36.08349609375 1.999992370605469 M 36.08349609375 -7.62939453125e-06 C 56.01186370849609 -7.62939453125e-06 72.16699981689453 16.15512847900391 72.16699981689453 36.08349609375 C 72.16699981689453 56.01186370849609 56.01186370849609 72.16699981689453 36.08349609375 72.16699981689453 C 16.15512847900391 72.16699981689453 -7.62939453125e-06 56.01186370849609 -7.62939453125e-06 36.08349609375 C -7.62939453125e-06 16.15512847900391 16.15512847900391 -7.62939453125e-06 36.08349609375 -7.62939453125e-06 Z" stroke="none" fill="#fb5012"/>
      </g>
    </g>
    <g id="time-to-market_1_" data-name="time-to-market (1)" transform="translate(185 5151)">
      <path id="Path_9188" data-name="Path 9188" d="M35.916,482H1.084a1.084,1.084,0,0,0,0,2.168H35.916a1.084,1.084,0,0,0,0-2.168Z" transform="translate(0 -447.168)" fill="#800020"/>
      <path id="Path_9189" data-name="Path 9189" d="M71.241,100.809a1.079,1.079,0,0,0-1.251.2l-8.672,8.672a1.084,1.084,0,0,0,1.533,1.533L70.97,103.1l7.973,3.987a1.09,1.09,0,0,0,1.318-.275L89.184,96.1v1.341a1.084,1.084,0,1,0,2.168,0c0-.448,0,1.622-.01-4.379a1.1,1.1,0,0,0-1.337-1.008L85.67,93.14a1.083,1.083,0,1,0,.525,2.1l1.114-.278-8.163,9.8Z" transform="translate(-56.592 -85.375)" fill="#fb5012"/>
      <path id="Path_9190" data-name="Path 9190" d="M7.588,15.176A7.588,7.588,0,1,0,0,7.588,7.6,7.6,0,0,0,7.588,15.176ZM6.5,5.42a1.084,1.084,0,0,1,2.168,0V6.5H9.756a1.084,1.084,0,0,1,0,2.168H7.588A1.083,1.083,0,0,1,6.5,7.588Z" fill="#800020"/>
      <path id="Path_9191" data-name="Path 9191" d="M32.084,392A1.083,1.083,0,0,0,31,393.084v3.252h6.5v-3.252A1.083,1.083,0,0,0,36.42,392Z" transform="translate(-28.76 -363.672)" fill="#800020"/>
      <path id="Path_9192" data-name="Path 9192" d="M152.084,332A1.083,1.083,0,0,0,151,333.084v7.588h6.5v-7.588A1.083,1.083,0,0,0,156.42,332Z" transform="translate(-140.088 -308.008)" fill="#800020"/>
      <path id="Path_9193" data-name="Path 9193" d="M272.084,362A1.083,1.083,0,0,0,271,363.084v5.42h6.5v-5.42A1.083,1.083,0,0,0,276.42,362Z" transform="translate(-251.416 -335.84)" fill="#800020"/>
      <path id="Path_9194" data-name="Path 9194" d="M396.42,272h-4.336A1.083,1.083,0,0,0,391,273.084v11.924h6.5V273.084A1.083,1.083,0,0,0,396.42,272Z" transform="translate(-362.744 -252.344)" fill="#800020"/>
    </g>
  </g>
</svg>
