<svg xmlns="http://www.w3.org/2000/svg" width="49.004" height="49.004" viewBox="0 0 49.004 49.004">
  <g id="Group_12862" data-name="Group 12862" transform="translate(-720 -9955.742)">
    <g id="Ellipse_332" data-name="Ellipse 332" transform="translate(720 9955.742)" fill="none" stroke="#fb5012" stroke-width="2">
      <circle cx="24.502" cy="24.502" r="24.502" stroke="none"/>
      <circle cx="24.502" cy="24.502" r="23.502" fill="none"/>
    </g>
    <g id="vector_2_" data-name="vector (2)" transform="translate(730.487 9966.229)">
      <g id="Group_12592" data-name="Group 12592">
        <g id="Group_12591" data-name="Group 12591">
          <path id="Path_8675" data-name="Path 8675" d="M27.21,0H23.925A.821.821,0,0,0,23.1.821v.821H16.338a2.463,2.463,0,0,0-4.645,0H4.927V.821A.821.821,0,0,0,4.106,0H.821A.821.821,0,0,0,0,.821V4.106a.821.821,0,0,0,.821.821H4.106a.821.821,0,0,0,.821-.821V3.274H8.342a10.789,10.789,0,0,0-4.98,8.412,2.463,2.463,0,1,0,1.646.016,9.17,9.17,0,0,1,6.8-8.144,2.462,2.462,0,0,0,4.413,0,9.169,9.169,0,0,1,6.8,8.144,2.465,2.465,0,1,0,1.646-.016,10.77,10.77,0,0,0-4.98-8.4H23.1v.821a.821.821,0,0,0,.821.821H27.21a.821.821,0,0,0,.821-.821V.821A.821.821,0,0,0,27.21,0ZM3.285,3.285H1.642V1.642H3.285Zm.876,11.552a.821.821,0,1,1,.821-.821A.822.822,0,0,1,4.161,14.837ZM14.016,3.285a.821.821,0,1,1,.821-.821A.822.822,0,0,1,14.016,3.285Zm9.855,9.909a.821.821,0,1,1-.821.821A.822.822,0,0,1,23.87,13.194Zm2.518-9.909H24.746V1.642h1.642Z" fill="#fb5012"/>
        </g>
      </g>
      <g id="Group_12594" data-name="Group 12594" transform="translate(6.625 6.625)">
        <g id="Group_12593" data-name="Group 12593">
          <path id="Path_8676" data-name="Path 8676" d="M135.644,131.23l-6.57-9.855h0l-.007-.01c-.011-.016-.023-.032-.036-.048a.821.821,0,0,0-1.315.048l-.007.01h0l-6.57,9.855a.821.821,0,0,0,.1,1.036,10.4,10.4,0,0,1,2.965,6.072,4.235,4.235,0,0,0-.367.333,4.163,4.163,0,0,0-1.2,2.924.821.821,0,0,0,.821.821h9.855a.821.821,0,0,0,.821-.821,4.163,4.163,0,0,0-1.2-2.924,4.233,4.233,0,0,0-.367-.333,10.4,10.4,0,0,1,2.965-6.072A.821.821,0,0,0,135.644,131.23Zm-7.253-.366a.821.821,0,1,1-.821.821A.822.822,0,0,1,128.391,130.864Zm-3.966,9.909a2.508,2.508,0,0,1,2.324-1.7h3.285a2.509,2.509,0,0,1,2.324,1.7Zm6.607-3.215a4.035,4.035,0,0,0-1-.125h-3.285a4.032,4.032,0,0,0-1,.125,12.051,12.051,0,0,0-2.882-5.962l4.7-7.054v4.82a2.464,2.464,0,1,0,1.642,0v-4.82l4.7,7.054A12.049,12.049,0,0,0,131.032,137.559Z" transform="translate(-121 -121.01)" fill="#800020"/>
        </g>
      </g>
    </g>
  </g>
</svg>
