<svg xmlns="http://www.w3.org/2000/svg" width="72.167" height="72.167" viewBox="0 0 72.167 72.167">
  <g id="Group_13172" data-name="Group 13172" transform="translate(-234 -7384.411)">
    <g id="Group_13075" data-name="Group 13075" transform="translate(0 -2687.338)">
      <g id="Path_8532" data-name="Path 8532" transform="translate(234 10071.749)" fill="none">
        <path d="M36.083,0A36.083,36.083,0,1,1,0,36.083,36.083,36.083,0,0,1,36.083,0Z" stroke="none"/>
        <path d="M 36.08349609375 1.999992370605469 C 31.48137283325195 1.999992370605469 27.01797485351562 2.900886535644531 22.8172721862793 4.677627563476562 C 18.75887298583984 6.394187927246094 15.11363983154297 8.852008819580078 11.98281860351562 11.98281860351562 C 8.852008819580078 15.11363983154297 6.394187927246094 18.75887298583984 4.677627563476562 22.8172721862793 C 2.900886535644531 27.01797485351562 1.999992370605469 31.48137283325195 1.999992370605469 36.08349609375 C 1.999992370605469 40.68561553955078 2.900886535644531 45.14901733398438 4.677627563476562 49.34971618652344 C 6.394187927246094 53.40811920166016 8.852008819580078 57.05335235595703 11.98281860351562 60.18417358398438 C 15.11363983154297 63.31498718261719 18.75887298583984 65.77280426025391 22.8172721862793 67.48936462402344 C 27.01797485351562 69.26610565185547 31.48137283325195 70.16699981689453 36.08349609375 70.16699981689453 C 40.68561553955078 70.16699981689453 45.14901733398438 69.26610565185547 49.34971618652344 67.48936462402344 C 53.40811920166016 65.77280426025391 57.05335235595703 63.31498718261719 60.18417358398438 60.18417358398438 C 63.31498718261719 57.05335235595703 65.77280426025391 53.40811920166016 67.48936462402344 49.34971618652344 C 69.26610565185547 45.14901733398438 70.16699981689453 40.68561553955078 70.16699981689453 36.08349609375 C 70.16699981689453 31.48137283325195 69.26610565185547 27.01797485351562 67.48936462402344 22.8172721862793 C 65.77280426025391 18.75887298583984 63.31498718261719 15.11363983154297 60.18417358398438 11.98281860351562 C 57.05335235595703 8.852008819580078 53.40811920166016 6.394187927246094 49.34971618652344 4.677627563476562 C 45.14901733398438 2.900886535644531 40.68561553955078 1.999992370605469 36.08349609375 1.999992370605469 M 36.08349609375 -7.62939453125e-06 C 56.01186370849609 -7.62939453125e-06 72.16699981689453 16.15512847900391 72.16699981689453 36.08349609375 C 72.16699981689453 56.01186370849609 56.01186370849609 72.16699981689453 36.08349609375 72.16699981689453 C 16.15512847900391 72.16699981689453 -7.62939453125e-06 56.01186370849609 -7.62939453125e-06 36.08349609375 C -7.62939453125e-06 16.15512847900391 16.15512847900391 -7.62939453125e-06 36.08349609375 -7.62939453125e-06 Z" stroke="none" fill="#fb5012"/>
      </g>
    </g>
    <g id="exchange" transform="translate(253.302 7402.815)">
      <path id="Path_9220" data-name="Path 9220" d="M0,0H13.832V4H0ZM0,0" fill="#fb5012"/>
      <path id="Path_9221" data-name="Path 9221" d="M0,91H13.832v9.833H0Zm0,0" transform="translate(0 -85.035)" fill="#fb5012"/>
      <path id="Path_9222" data-name="Path 9222" d="M0,271H13.832v3.933H0Zm0,0" transform="translate(0 -253.235)" fill="#fb5012"/>
      <path id="Path_9223" data-name="Path 9223" d="M301,181h13.832v3.933H301Zm0,0" transform="translate(-281.269 -169.135)" fill="#fb5012"/>
      <path id="Path_9224" data-name="Path 9224" d="M301,271h13.832v9.833H301Zm0,0" transform="translate(-281.269 -253.235)" fill="#fb5012"/>
      <path id="Path_9225" data-name="Path 9225" d="M301,451h13.832v4H301Zm0,0" transform="translate(-281.269 -421.436)" fill="#fb5012"/>
      <path id="Path_9226" data-name="Path 9226" d="M30,361v1.967a5.956,5.956,0,0,0,5.965,5.9h1.967V370.9l5.9-4-5.9-3.933v1.967H34.916a2.95,2.95,0,0,1-2.95-2.95V361Zm0,0" transform="translate(-28.033 -337.335)" fill="#800020"/>
      <path id="Path_9227" data-name="Path 9227" d="M284.766,9.9V7.932a5.9,5.9,0,0,0-5.9-5.9H276.9V0L271,4l5.9,3.933V5.965h2.95a2.95,2.95,0,0,1,2.95,2.95V9.9Zm0,0" transform="translate(-253.235)" fill="#800020"/>
    </g>
  </g>
</svg>
