<svg xmlns="http://www.w3.org/2000/svg" width="74" height="74" viewBox="0 0 74 74">
  <g id="Group_13167" data-name="Group 13167" transform="translate(-582 -6548.497)">
    <g id="Group_13071" data-name="Group 13071" transform="translate(0 -2750.419)">
      <g id="Path_8611" data-name="Path 8611" transform="translate(582 9298.916)" fill="none">
        <path d="M37,0A37,37,0,1,1,0,37,37,37,0,0,1,37,0Z" stroke="none"/>
        <path d="M 37 2 C 32.27414321899414 2 27.69072341918945 2.925125122070312 23.37703323364258 4.749656677246094 C 19.20949935913086 6.512367248535156 15.46624374389648 9.036277770996094 12.25126647949219 12.25126647949219 C 9.036277770996094 15.46624374389648 6.512367248535156 19.20949935913086 4.749656677246094 23.37703323364258 C 2.925125122070312 27.69072341918945 2 32.27414321899414 2 37 C 2 41.72585678100586 2.925125122070312 46.30928039550781 4.749656677246094 50.62296676635742 C 6.512367248535156 54.79050064086914 9.036277770996094 58.53375625610352 12.25126647949219 61.74873352050781 C 15.46624374389648 64.96372222900391 19.20949935913086 67.48763275146484 23.37703323364258 69.25034332275391 C 27.69072341918945 71.07487487792969 32.27414321899414 72 37 72 C 41.72585678100586 72 46.30928039550781 71.07487487792969 50.62296676635742 69.25034332275391 C 54.79050064086914 67.48763275146484 58.53375625610352 64.96372222900391 61.74873352050781 61.74873352050781 C 64.96372222900391 58.53375625610352 67.48763275146484 54.79050064086914 69.25034332275391 50.62296676635742 C 71.07487487792969 46.30928039550781 72 41.72585678100586 72 37 C 72 32.27414321899414 71.07487487792969 27.69072341918945 69.25034332275391 23.37703323364258 C 67.48763275146484 19.20949935913086 64.96372222900391 15.46624374389648 61.74873352050781 12.25126647949219 C 58.53375625610352 9.036277770996094 54.79050064086914 6.512367248535156 50.62296676635742 4.749656677246094 C 46.30928039550781 2.925125122070312 41.72585678100586 2 37 2 M 37 0 C 57.43453216552734 0 74 16.56546783447266 74 37 C 74 57.43453216552734 57.43453216552734 74 37 74 C 16.56546783447266 74 0 57.43453216552734 0 37 C 0 16.56546783447266 16.56546783447266 0 37 0 Z" stroke="none" fill="#fb5012"/>
      </g>
    </g>
    <g id="apple" transform="translate(565.405 6564.498)">
      <g id="Group_13147" data-name="Group 13147" transform="translate(52.964)">
        <g id="Group_13146" data-name="Group 13146">
          <path id="Path_9205" data-name="Path 9205" d="M255.289,0A8.934,8.934,0,0,0,249.5,3.131a7.759,7.759,0,0,0-1.894,6.029,7.54,7.54,0,0,0,5.837-2.981A8.376,8.376,0,0,0,255.289,0Z" transform="translate(-247.522)" fill="#800020"/>
        </g>
      </g>
      <g id="Group_13149" data-name="Group 13149" transform="translate(37.336 8.911)">
        <g id="Group_13148" data-name="Group 13148" transform="translate(0)">
          <path id="Path_9206" data-name="Path 9206" d="M68.752,123.7a9.637,9.637,0,0,0-7.274-3.862c-3.414,0-4.859,1.635-7.231,1.635-2.446,0-4.3-1.63-7.257-1.63a9.874,9.874,0,0,0-7.947,4.8c-2.753,4.269-2.282,12.294,2.18,19.13,1.6,2.446,3.728,5.2,6.517,5.22,2.482.024,3.181-1.592,6.543-1.608s4,1.63,6.477,1.6c2.791-.021,5.04-3.069,6.636-5.515a27.43,27.43,0,0,0,2.458-4.616A8.393,8.393,0,0,1,68.752,123.7Z" transform="translate(-37.336 -119.84)" fill="#fb5012"/>
        </g>
      </g>
    </g>
  </g>
</svg>
