<svg xmlns="http://www.w3.org/2000/svg" width="72.167" height="72.167" viewBox="0 0 72.167 72.167">
  <g id="Group_13132" data-name="Group 13132" transform="translate(-780 -4930.082)">
    <g id="Group_12493" data-name="Group 12493" transform="translate(0 1885.089)">
      <g id="Path_8547" data-name="Path 8547" transform="translate(780 3044.993)" fill="none">
        <path d="M36.083,0A36.083,36.083,0,1,1,0,36.083,36.083,36.083,0,0,1,36.083,0Z" stroke="none"/>
        <path d="M 36.08349609375 1.999992370605469 C 31.48137283325195 1.999992370605469 27.01797485351562 2.900886535644531 22.8172721862793 4.677627563476562 C 18.75887298583984 6.394187927246094 15.11363983154297 8.852008819580078 11.98281860351562 11.98281860351562 C 8.852008819580078 15.11363983154297 6.394187927246094 18.75887298583984 4.677627563476562 22.8172721862793 C 2.900886535644531 27.01797485351562 1.999992370605469 31.48137283325195 1.999992370605469 36.08349609375 C 1.999992370605469 40.68561553955078 2.900886535644531 45.14901733398438 4.677627563476562 49.34971618652344 C 6.394187927246094 53.40811920166016 8.852008819580078 57.05335235595703 11.98281860351562 60.18417358398438 C 15.11363983154297 63.31498718261719 18.75887298583984 65.77280426025391 22.8172721862793 67.48936462402344 C 27.01797485351562 69.26610565185547 31.48137283325195 70.16699981689453 36.08349609375 70.16699981689453 C 40.68561553955078 70.16699981689453 45.14901733398438 69.26610565185547 49.34971618652344 67.48936462402344 C 53.40811920166016 65.77280426025391 57.05335235595703 63.31498718261719 60.18417358398438 60.18417358398438 C 63.31498718261719 57.05335235595703 65.77280426025391 53.40811920166016 67.48936462402344 49.34971618652344 C 69.26610565185547 45.14901733398438 70.16699981689453 40.68561553955078 70.16699981689453 36.08349609375 C 70.16699981689453 31.48137283325195 69.26610565185547 27.01797485351562 67.48936462402344 22.8172721862793 C 65.77280426025391 18.75887298583984 63.31498718261719 15.11363983154297 60.18417358398438 11.98281860351562 C 57.05335235595703 8.852008819580078 53.40811920166016 6.394187927246094 49.34971618652344 4.677627563476562 C 45.14901733398438 2.900886535644531 40.68561553955078 1.999992370605469 36.08349609375 1.999992370605469 M 36.08349609375 -7.62939453125e-06 C 56.01186370849609 -7.62939453125e-06 72.16699981689453 16.15512847900391 72.16699981689453 36.08349609375 C 72.16699981689453 56.01186370849609 56.01186370849609 72.16699981689453 36.08349609375 72.16699981689453 C 16.15512847900391 72.16699981689453 -7.62939453125e-06 56.01186370849609 -7.62939453125e-06 36.08349609375 C -7.62939453125e-06 16.15512847900391 16.15512847900391 -7.62939453125e-06 36.08349609375 -7.62939453125e-06 Z" stroke="none" fill="#fb5012"/>
      </g>
    </g>
    <g id="deal" transform="translate(799.48 4912.214)">
      <path id="Path_9195" data-name="Path 9195" d="M171.84,50.476l-5.9-10.057a.973.973,0,0,0-1.325-.35l-3.537,2.042-3.186-1.172a3.6,3.6,0,0,0-.356-.11,3.555,3.555,0,0,0-2.659.368l-5.266,3.041a2.432,2.432,0,0,0,2.432,4.212l5.779-3.337a1.946,1.946,0,0,1,1.946,0s11.643,6.725,11.681,6.748l.173-.143A.973.973,0,0,0,171.84,50.476Z" transform="translate(-138.768)" fill="#800020"/>
      <path id="Path_9196" data-name="Path 9196" d="M31.593,74.324,20.025,67.646l-5.779,3.337a4.352,4.352,0,0,1-2.182.588,4.405,4.405,0,0,1-1.14-.151,4.378,4.378,0,0,1-1.558-7.681L6.98,62.361a.973.973,0,0,0-1.344.383L.116,73.036a.973.973,0,0,0,.371,1.3l.506.292.888-1.537a4.14,4.14,0,0,1,6.608-.751,4.132,4.132,0,0,1,5.406,2.814c.031.117.057.235.078.353a4.135,4.135,0,0,1,3.065,2.959c.031.117.057.235.078.353a4.135,4.135,0,0,1,2.652,6.1l-1.212,2.1,2.6,1.5a2.189,2.189,0,0,0,2.189-3.791l1.685.973a2.189,2.189,0,0,0,2.189-3.791l1.123.649a2.189,2.189,0,1,0,2.189-3.791L29.4,78.116a2.189,2.189,0,0,0,2.189-3.791Z" transform="translate(0 -20.846)" fill="#fb5012"/>
      <path id="Path_9197" data-name="Path 9197" d="M30.548,235.825a2.189,2.189,0,0,0-2.99.8l.649-1.123a2.189,2.189,0,1,0-3.791-2.189l.649-1.123A2.189,2.189,0,0,0,21.273,230l-.649,1.123a2.189,2.189,0,0,0-3.791-2.189l-2.351,4.072a2.189,2.189,0,1,0,3.791,2.189,2.189,2.189,0,1,0,3.791,2.189,2.189,2.189,0,0,0,3.791,2.189,2.189,2.189,0,1,0,3.791,2.189l1.7-2.949A2.188,2.188,0,0,0,30.548,235.825Z" transform="translate(-13.268 -175.716)" fill="#800020"/>
    </g>
  </g>
</svg>
