<svg xmlns="http://www.w3.org/2000/svg" width="72.167" height="72.167" viewBox="0 0 72.167 72.167">
  <g id="Group_13173" data-name="Group 13173" transform="translate(-582 -7384.411)">
    <g id="Group_13076" data-name="Group 13076" transform="translate(0 -2687.338)">
      <g id="Path_8532" data-name="Path 8532" transform="translate(582 10071.749)" fill="none">
        <path d="M36.083,0A36.083,36.083,0,1,1,0,36.083,36.083,36.083,0,0,1,36.083,0Z" stroke="none"/>
        <path d="M 36.08349609375 1.999992370605469 C 31.48137283325195 1.999992370605469 27.01797485351562 2.900886535644531 22.8172721862793 4.677627563476562 C 18.75887298583984 6.394187927246094 15.11363983154297 8.852008819580078 11.98281860351562 11.98281860351562 C 8.852008819580078 15.11363983154297 6.394187927246094 18.75887298583984 4.677627563476562 22.8172721862793 C 2.900886535644531 27.01797485351562 1.999992370605469 31.48137283325195 1.999992370605469 36.08349609375 C 1.999992370605469 40.68561553955078 2.900886535644531 45.14901733398438 4.677627563476562 49.34971618652344 C 6.394187927246094 53.40811920166016 8.852008819580078 57.05335235595703 11.98281860351562 60.18417358398438 C 15.11363983154297 63.31498718261719 18.75887298583984 65.77280426025391 22.8172721862793 67.48936462402344 C 27.01797485351562 69.26610565185547 31.48137283325195 70.16699981689453 36.08349609375 70.16699981689453 C 40.68561553955078 70.16699981689453 45.14901733398438 69.26610565185547 49.34971618652344 67.48936462402344 C 53.40811920166016 65.77280426025391 57.05335235595703 63.31498718261719 60.18417358398438 60.18417358398438 C 63.31498718261719 57.05335235595703 65.77280426025391 53.40811920166016 67.48936462402344 49.34971618652344 C 69.26610565185547 45.14901733398438 70.16699981689453 40.68561553955078 70.16699981689453 36.08349609375 C 70.16699981689453 31.48137283325195 69.26610565185547 27.01797485351562 67.48936462402344 22.8172721862793 C 65.77280426025391 18.75887298583984 63.31498718261719 15.11363983154297 60.18417358398438 11.98281860351562 C 57.05335235595703 8.852008819580078 53.40811920166016 6.394187927246094 49.34971618652344 4.677627563476562 C 45.14901733398438 2.900886535644531 40.68561553955078 1.999992370605469 36.08349609375 1.999992370605469 M 36.08349609375 -7.62939453125e-06 C 56.01186370849609 -7.62939453125e-06 72.16699981689453 16.15512847900391 72.16699981689453 36.08349609375 C 72.16699981689453 56.01186370849609 56.01186370849609 72.16699981689453 36.08349609375 72.16699981689453 C 16.15512847900391 72.16699981689453 -7.62939453125e-06 56.01186370849609 -7.62939453125e-06 36.08349609375 C -7.62939453125e-06 16.15512847900391 16.15512847900391 -7.62939453125e-06 36.08349609375 -7.62939453125e-06 Z" stroke="none" fill="#fb5012"/>
      </g>
    </g>
    <g id="consultant_1_" data-name="consultant (1)" transform="translate(600.673 7403.084)">
      <circle id="Ellipse_401" data-name="Ellipse 401" cx="3.997" cy="3.997" r="3.997" transform="translate(5.33 18.654)" fill="#800020"/>
      <path id="Path_9228" data-name="Path 9228" d="M31,399.141a1.02,1.02,0,0,0,1.02,1.02H44.262a1.02,1.02,0,0,0,1.02-1.02,7.141,7.141,0,0,0-14.282,0Z" transform="translate(-28.892 -365.34)" fill="#800020"/>
      <circle id="Ellipse_402" data-name="Ellipse 402" cx="3.997" cy="3.997" r="3.997" transform="translate(21.319 18.654)" fill="#fb5012"/>
      <path id="Path_9229" data-name="Path 9229" d="M271,399.141a1.02,1.02,0,0,0,1.02,1.02h12.242a1.02,1.02,0,0,0,1.02-1.02,7.141,7.141,0,0,0-14.282,0Z" transform="translate(-252.569 -365.34)" fill="#fb5012"/>
      <path id="Path_9230" data-name="Path 9230" d="M31.76,0H3.06A3.064,3.064,0,0,0,0,3.06v8.161a3.064,3.064,0,0,0,3.06,3.06H6.719L8.46,16.023a1.02,1.02,0,0,0,1.443,0l1.741-1.741H23.177l1.741,1.741a1.02,1.02,0,0,0,1.443,0L28.1,14.282H31.76a3.064,3.064,0,0,0,3.06-3.06V3.06A3.064,3.064,0,0,0,31.76,0Zm-18.5,10.2H5.1a1.02,1.02,0,1,1,0-2.04h8.161a1.02,1.02,0,1,1,0,2.04Zm0-4.081H5.1a1.02,1.02,0,1,1,0-2.04h8.161a1.02,1.02,0,1,1,0,2.04ZM29.72,10.2H21.559a1.02,1.02,0,0,1,0-2.04H29.72a1.02,1.02,0,1,1,0,2.04Zm0-4.081H21.559a1.02,1.02,0,0,1,0-2.04H29.72a1.02,1.02,0,1,1,0,2.04Z" fill="#fb5012"/>
    </g>
  </g>
</svg>
