<svg xmlns="http://www.w3.org/2000/svg" width="72.167" height="72.167" viewBox="0 0 72.167 72.167">
  <g id="Group_13170" data-name="Group 13170" transform="translate(-582 -6969.595)">
    <g id="Group_13074" data-name="Group 13074" transform="translate(0 -2708.338)">
      <g id="Path_8532" data-name="Path 8532" transform="translate(582 9677.933)" fill="none">
        <path d="M36.083,0A36.083,36.083,0,1,1,0,36.083,36.083,36.083,0,0,1,36.083,0Z" stroke="none"/>
        <path d="M 36.08349609375 1.999992370605469 C 31.48137283325195 1.999992370605469 27.01797485351562 2.900886535644531 22.8172721862793 4.677627563476562 C 18.75887298583984 6.394187927246094 15.11363983154297 8.852008819580078 11.98281860351562 11.98281860351562 C 8.852008819580078 15.11363983154297 6.394187927246094 18.75887298583984 4.677627563476562 22.8172721862793 C 2.900886535644531 27.01797485351562 1.999992370605469 31.48137283325195 1.999992370605469 36.08349609375 C 1.999992370605469 40.68561553955078 2.900886535644531 45.14901733398438 4.677627563476562 49.34971618652344 C 6.394187927246094 53.40811920166016 8.852008819580078 57.05335235595703 11.98281860351562 60.18417358398438 C 15.11363983154297 63.31498718261719 18.75887298583984 65.77280426025391 22.8172721862793 67.48936462402344 C 27.01797485351562 69.26610565185547 31.48137283325195 70.16699981689453 36.08349609375 70.16699981689453 C 40.68561553955078 70.16699981689453 45.14901733398438 69.26610565185547 49.34971618652344 67.48936462402344 C 53.40811920166016 65.77280426025391 57.05335235595703 63.31498718261719 60.18417358398438 60.18417358398438 C 63.31498718261719 57.05335235595703 65.77280426025391 53.40811920166016 67.48936462402344 49.34971618652344 C 69.26610565185547 45.14901733398438 70.16699981689453 40.68561553955078 70.16699981689453 36.08349609375 C 70.16699981689453 31.48137283325195 69.26610565185547 27.01797485351562 67.48936462402344 22.8172721862793 C 65.77280426025391 18.75887298583984 63.31498718261719 15.11363983154297 60.18417358398438 11.98281860351562 C 57.05335235595703 8.852008819580078 53.40811920166016 6.394187927246094 49.34971618652344 4.677627563476562 C 45.14901733398438 2.900886535644531 40.68561553955078 1.999992370605469 36.08349609375 1.999992370605469 M 36.08349609375 -7.62939453125e-06 C 56.01186370849609 -7.62939453125e-06 72.16699981689453 16.15512847900391 72.16699981689453 36.08349609375 C 72.16699981689453 56.01186370849609 56.01186370849609 72.16699981689453 36.08349609375 72.16699981689453 C 16.15512847900391 72.16699981689453 -7.62939453125e-06 56.01186370849609 -7.62939453125e-06 36.08349609375 C -7.62939453125e-06 16.15512847900391 16.15512847900391 -7.62939453125e-06 36.08349609375 -7.62939453125e-06 Z" stroke="none" fill="#fb5012"/>
      </g>
    </g>
    <g id="api_1_" data-name="api (1)" transform="translate(597.447 6985.042)">
      <path id="Path_9198" data-name="Path 9198" d="M149.351,140a9.351,9.351,0,1,0,9.351,9.351A9.362,9.362,0,0,0,149.351,140Zm-4.857,4.827h6.984l-.369-.407a1.209,1.209,0,1,1,1.791-1.625l2.2,2.428a1.209,1.209,0,0,1,0,1.625l-2.2,2.428a1.209,1.209,0,1,1-1.791-1.625l.369-.407h-6.984a1.209,1.209,0,0,1,0-2.418Zm9.714,9.049h-6.984l.369.407a1.209,1.209,0,0,1-1.791,1.625l-2.2-2.428a1.209,1.209,0,0,1,0-1.625l2.2-2.428a1.209,1.209,0,0,1,1.791,1.625l-.369.407h6.984a1.209,1.209,0,0,1,0,2.418Z" transform="translate(-128.714 -128.714)" fill="#800020"/>
      <path id="Path_9199" data-name="Path 9199" d="M40.064,16.116h-2.7a17.142,17.142,0,0,0-1.7-4.11l1.91-1.91a1.209,1.209,0,0,0,0-1.71L32.887,3.7a1.209,1.209,0,0,0-1.71,0l-1.91,1.91a17.142,17.142,0,0,0-4.11-1.7v-2.7A1.209,1.209,0,0,0,23.948,0H17.325a1.209,1.209,0,0,0-1.209,1.209v2.7a17.143,17.143,0,0,0-4.11,1.7L10.1,3.7a1.209,1.209,0,0,0-1.71,0L3.7,8.386a1.209,1.209,0,0,0,0,1.71l1.91,1.91a17.142,17.142,0,0,0-1.7,4.11h-2.7A1.209,1.209,0,0,0,0,17.325v6.623a1.209,1.209,0,0,0,1.209,1.209h2.7a17.143,17.143,0,0,0,1.7,4.11L3.7,31.177a1.209,1.209,0,0,0,0,1.71L8.386,37.57a1.209,1.209,0,0,0,1.71,0l1.91-1.91a17.141,17.141,0,0,0,4.11,1.7v2.7a1.209,1.209,0,0,0,1.209,1.209h6.623a1.209,1.209,0,0,0,1.209-1.209v-2.7a17.135,17.135,0,0,0,4.11-1.7l1.91,1.91a1.209,1.209,0,0,0,1.71,0l4.683-4.683a1.209,1.209,0,0,0,0-1.71l-1.91-1.91a17.142,17.142,0,0,0,1.7-4.11h2.7a1.209,1.209,0,0,0,1.209-1.209V17.325a1.209,1.209,0,0,0-1.209-1.209ZM20.637,32.406A11.769,11.769,0,1,1,32.406,20.637,11.783,11.783,0,0,1,20.637,32.406Z" fill="#fb5012"/>
    </g>
  </g>
</svg>
