<svg xmlns="http://www.w3.org/2000/svg" width="49.004" height="49.004" viewBox="0 0 49.004 49.004">
  <g id="Group_13127" data-name="Group 13127" transform="translate(-969.512 -4230.523)">
    <g id="Group_12985" data-name="Group 12985" transform="translate(588.64 -4694.906)">
      <g id="Ellipse_332" data-name="Ellipse 332" transform="translate(380.872 8925.43)" fill="none" stroke="#fb5012" stroke-width="2">
        <circle cx="24.502" cy="24.502" r="24.502" stroke="none"/>
        <circle cx="24.502" cy="24.502" r="23.502" fill="none"/>
      </g>
    </g>
    <g id="skype" transform="translate(980.357 4240.618)">
      <path id="Path_9173" data-name="Path 9173" d="M26.5,16.521a12.745,12.745,0,0,0,.3-2.751A12.908,12.908,0,0,0,13.8.954a13.266,13.266,0,0,0-2.222.187A7.57,7.57,0,0,0,7.57,0,7.486,7.486,0,0,0,.032,7.434a7.334,7.334,0,0,0,1.036,3.76A12.623,12.623,0,0,0,13.8,26.376a13.26,13.26,0,0,0,2.379-.215,7.783,7.783,0,0,0,3.564,1.094,7.485,7.485,0,0,0,7.538-7.434A7.321,7.321,0,0,0,26.5,16.521Z" transform="translate(0 0)" fill="#00aff0"/>
      <path id="Path_9174" data-name="Path 9174" d="M93.949,76.873a4.92,4.92,0,0,1-2.2,1.676,8.832,8.832,0,0,1-3.435.607,8.282,8.282,0,0,1-3.931-.829A5.087,5.087,0,0,1,82.6,76.736a3.421,3.421,0,0,1-.686-1.936,1.236,1.236,0,0,1,.411-.933,1.456,1.456,0,0,1,1.048-.39,1.293,1.293,0,0,1,.873.3,2.338,2.338,0,0,1,.609.9,5.758,5.758,0,0,0,.665,1.183,2.645,2.645,0,0,0,1,.783,4.028,4.028,0,0,0,1.7.307,4.082,4.082,0,0,0,2.356-.621,1.835,1.835,0,0,0,.906-1.551,1.565,1.565,0,0,0-.489-1.2,3.2,3.2,0,0,0-1.263-.7q-.773-.244-2.07-.516a16.089,16.089,0,0,1-2.9-.873A4.661,4.661,0,0,1,82.9,70.132a3.345,3.345,0,0,1-.686-2.147,3.477,3.477,0,0,1,.725-2.172,4.538,4.538,0,0,1,2.1-1.461,9.242,9.242,0,0,1,3.227-.51,8.691,8.691,0,0,1,2.564.337,5.571,5.571,0,0,1,1.793.9,3.818,3.818,0,0,1,1.043,1.177,2.536,2.536,0,0,1,.33,1.2,1.436,1.436,0,0,1-1.437,1.4,1.251,1.251,0,0,1-.852-.258,3.452,3.452,0,0,1-.63-.844,3.868,3.868,0,0,0-1.054-1.307,3.28,3.28,0,0,0-1.976-.47,3.635,3.635,0,0,0-2.036.51,1.463,1.463,0,0,0-.775,1.227,1.185,1.185,0,0,0,.264.767,2.128,2.128,0,0,0,.726.554,5.207,5.207,0,0,0,.932.365q.471.132,1.56.383,1.359.293,2.464.646a7.869,7.869,0,0,1,1.878.858,3.646,3.646,0,0,1,1.208,1.281A3.818,3.818,0,0,1,94.7,74.46,4.106,4.106,0,0,1,93.949,76.873Z" transform="translate(-74.22 -57.871)" fill="#fff"/>
    </g>
  </g>
</svg>
