<svg xmlns="http://www.w3.org/2000/svg" xmlns:xlink="http://www.w3.org/1999/xlink" width="1440" height="423" viewBox="0 0 1440 423">
  <defs>
    <clipPath id="clip-path">
      <rect id="Rectangle_1544" data-name="Rectangle 1544" width="1440" height="423" transform="translate(-4728 5228)" fill="#fb5012" stroke="#707070" stroke-width="1"/>
    </clipPath>
  </defs>
  <g id="Group_12762" data-name="Group 12762" transform="translate(6415 -6040)">
    <g id="Rectangle_1548" data-name="Rectangle 1548" transform="translate(-6415 6040)" fill="#fb5012" stroke="#707070" stroke-width="1">
      <rect width="1440" height="423" stroke="none"/>
      <rect x="0.5" y="0.5" width="1439" height="422" fill="none"/>
    </g>
    <g id="Mask_Group_132" data-name="Mask Group 132" transform="translate(-1687 812)" clip-path="url(#clip-path)">
      <g id="Group_12761" data-name="Group 12761" transform="translate(-4728 4528.385)">
        <g id="Group_12745" data-name="Group 12745" transform="translate(36.768 619.615)" opacity="0.23">
          <path id="Path_8855" data-name="Path 8855" d="M2833.569,2031.455a10.492,10.492,0,1,0,10.491,10.492A10.491,10.491,0,0,0,2833.569,2031.455Zm0,18.535a8.043,8.043,0,1,1,8.043-8.043A8.043,8.043,0,0,1,2833.569,2049.99Z" transform="translate(-2019.517 -1611.2)" fill="#fff"/>
          <path id="Path_8856" data-name="Path 8856" d="M2710.418,619.615a10.491,10.491,0,1,0,10.491,10.491A10.491,10.491,0,0,0,2710.418,619.615Zm0,18.535a8.043,8.043,0,1,1,8.043-8.043A8.043,8.043,0,0,1,2710.418,638.15Z" transform="translate(-1933.023 -619.615)" fill="#fff"/>
          <path id="Path_8857" data-name="Path 8857" d="M1002.648,738.637a16.29,16.29,0,1,0,16.29,16.29A16.29,16.29,0,0,0,1002.648,738.637Zm0,28.779a12.489,12.489,0,1,1,12.489-12.489A12.489,12.489,0,0,1,1002.648,767.416Z" transform="translate(-729.523 -703.208)" fill="#fff"/>
          <path id="Path_8858" data-name="Path 8858" d="M1036.061,2027.3a7.014,7.014,0,1,0,7.014,7.014A7.014,7.014,0,0,0,1036.061,2027.3Zm0,12.391a5.377,5.377,0,1,1,5.378-5.377A5.377,5.377,0,0,1,1036.061,2039.693Z" transform="translate(-759.505 -1608.284)" fill="#fff"/>
          <path id="Path_8859" data-name="Path 8859" d="M1244.13,2236.2a10.959,10.959,0,1,0,10.959,10.959A10.959,10.959,0,0,0,1244.13,2236.2Zm0,19.362a8.4,8.4,0,1,1,8.4-8.4A8.4,8.4,0,0,1,1244.13,2255.564Z" transform="translate(-902.868 -1755.002)" fill="#fff"/>
          <path id="Path_8860" data-name="Path 8860" d="M1964.954,2135.918a4.723,4.723,0,1,0,4.723,4.722A4.722,4.722,0,0,0,1964.954,2135.918Zm0,8.343a3.62,3.62,0,1,1,3.621-3.621A3.621,3.621,0,0,1,1964.954,2144.261Z" transform="translate(-1413.509 -1684.569)" fill="#fff"/>
          <path id="Path_8861" data-name="Path 8861" d="M1670.717,816.36a4.722,4.722,0,1,0,4.723,4.723A4.723,4.723,0,0,0,1670.717,816.36Zm0,8.343a3.621,3.621,0,1,1,3.621-3.62A3.621,3.621,0,0,1,1670.717,824.7Z" transform="translate(-1206.856 -757.796)" fill="#fff"/>
          <path id="Path_8862" data-name="Path 8862" d="M554.948,1216.651a7.014,7.014,0,1,0,7.014,7.014A7.014,7.014,0,0,0,554.948,1216.651Zm0,12.391a5.378,5.378,0,1,1,5.377-5.378A5.377,5.377,0,0,1,554.948,1229.042Z" transform="translate(-421.602 -1038.935)" fill="#fff"/>
          <path id="Path_8863" data-name="Path 8863" d="M2214.757,1818.877a13.862,13.862,0,1,0,13.862,13.862A13.862,13.862,0,0,0,2214.757,1818.877Zm0,24.489a10.627,10.627,0,1,1,10.627-10.628A10.628,10.628,0,0,1,2214.757,1843.366Z" transform="translate(-1582.535 -1461.9)" fill="#fff"/>
          <path id="Path_8864" data-name="Path 8864" d="M1920.495,1197.371l-5.039,3.5-3.5-5.039a1.558,1.558,0,0,0-2.168-.39l-.026.018a1.558,1.558,0,0,0-.391,2.169l3.5,5.039-5.039,3.5a1.558,1.558,0,0,0-.391,2.169l.018.026a1.558,1.558,0,0,0,2.168.391l5.039-3.5,3.5,5.039a1.558,1.558,0,0,0,2.169.39l.026-.018a1.558,1.558,0,0,0,.39-2.168l-3.5-5.038,5.039-3.5a1.558,1.558,0,0,0,.39-2.168l-.018-.026A1.558,1.558,0,0,0,1920.495,1197.371Z" transform="translate(-1376.237 -1023.844)" fill="#fff"/>
          <path id="Path_8865" data-name="Path 8865" d="M406.227,729.629l-5.039,3.5-3.5-5.039a1.557,1.557,0,0,0-2.168-.39l-.026.018a1.558,1.558,0,0,0-.391,2.168l3.5,5.039-5.039,3.5a1.558,1.558,0,0,0-.391,2.168l.018.026a1.558,1.558,0,0,0,2.168.39l5.039-3.5,3.5,5.039a1.558,1.558,0,0,0,2.168.39l.026-.018a1.558,1.558,0,0,0,.391-2.168l-3.5-5.039,5.039-3.5a1.558,1.558,0,0,0,.391-2.169l-.018-.026A1.558,1.558,0,0,0,406.227,729.629Z" transform="translate(-312.713 -695.332)" fill="#fff"/>
          <path id="Path_8866" data-name="Path 8866" d="M2798.573,1239.451l-5.039,3.5-3.5-5.039a1.557,1.557,0,0,0-2.168-.39l-.026.018a1.558,1.558,0,0,0-.39,2.168l3.5,5.039-5.039,3.5a1.558,1.558,0,0,0-.39,2.168l.018.026a1.558,1.558,0,0,0,2.169.391l5.039-3.5,3.5,5.039a1.558,1.558,0,0,0,2.169.391l.026-.018a1.558,1.558,0,0,0,.391-2.168l-3.5-5.039,5.039-3.5a1.558,1.558,0,0,0,.39-2.168l-.018-.026A1.557,1.557,0,0,0,2798.573,1239.451Z" transform="translate(-1992.943 -1053.398)" fill="#fff"/>
          <path id="Path_8867" data-name="Path 8867" d="M2721.97,2361.088l-5.039,3.5-3.5-5.039a1.558,1.558,0,0,0-2.169-.391l-.025.018a1.559,1.559,0,0,0-.391,2.169l3.5,5.038-5.039,3.5a1.558,1.558,0,0,0-.39,2.168l.018.026a1.558,1.558,0,0,0,2.168.39l5.039-3.5,3.5,5.039a1.558,1.558,0,0,0,2.168.391l.026-.018a1.558,1.558,0,0,0,.391-2.168l-3.5-5.039,5.039-3.5a1.558,1.558,0,0,0,.391-2.168l-.018-.026A1.558,1.558,0,0,0,2721.97,2361.088Z" transform="translate(-1939.142 -1841.164)" fill="#fff"/>
          <path id="Path_8868" data-name="Path 8868" d="M2005.023,621.483l-1.583,8.8-8.8-1.584a2.27,2.27,0,0,0-2.636,1.832l-.008.045a2.27,2.27,0,0,0,1.832,2.636l8.8,1.584-1.584,8.8a2.27,2.27,0,0,0,1.832,2.636l.045.008a2.269,2.269,0,0,0,2.636-1.832l1.584-8.8,8.8,1.584a2.27,2.27,0,0,0,2.636-1.832l.008-.045a2.27,2.27,0,0,0-1.832-2.636l-8.8-1.584,1.584-8.8a2.269,2.269,0,0,0-1.831-2.636l-.045-.008A2.27,2.27,0,0,0,2005.023,621.483Z" transform="translate(-1435.794 -619.615)" fill="#fff"/>
          <path id="Path_8869" data-name="Path 8869" d="M1652.792,1759.815l-5.039,3.5-3.5-5.039a1.558,1.558,0,0,0-2.168-.39l-.026.018a1.558,1.558,0,0,0-.391,2.169l3.5,5.039-5.039,3.5a1.558,1.558,0,0,0-.391,2.168l.018.026a1.558,1.558,0,0,0,2.168.391l5.039-3.5,3.5,5.039a1.558,1.558,0,0,0,2.168.39l.026-.018a1.558,1.558,0,0,0,.391-2.168l-3.5-5.039,5.038-3.5a1.558,1.558,0,0,0,.391-2.168l-.018-.026A1.558,1.558,0,0,0,1652.792,1759.815Z" transform="translate(-1188.22 -1418.868)" fill="#fff"/>
          <path id="Path_8870" data-name="Path 8870" d="M500.256,2291.909l-5.039,3.5-3.5-5.039a1.558,1.558,0,0,0-2.168-.391l-.026.018a1.558,1.558,0,0,0-.391,2.168l3.5,5.039-5.039,3.5a1.558,1.558,0,0,0-.391,2.168l.018.026a1.558,1.558,0,0,0,2.169.391l5.039-3.5,3.5,5.039a1.558,1.558,0,0,0,2.168.39l.026-.018a1.558,1.558,0,0,0,.391-2.168l-3.5-5.039,5.039-3.5a1.558,1.558,0,0,0,.391-2.168l-.018-.026A1.558,1.558,0,0,0,500.256,2291.909Z" transform="translate(-378.752 -1792.577)" fill="#fff"/>
          <path id="Path_8871" data-name="Path 8871" d="M153.29,1108.133l-11.251,7.818-7.818-11.25a3.479,3.479,0,0,0-4.842-.872l-.058.04a3.478,3.478,0,0,0-.872,4.842l7.818,11.25-11.251,7.818a3.479,3.479,0,0,0-.872,4.842l.04.057a3.479,3.479,0,0,0,4.842.872l11.251-7.818,7.818,11.251a3.479,3.479,0,0,0,4.842.872l.058-.04a3.479,3.479,0,0,0,.872-4.842l-7.818-11.25L157.3,1113.9a3.479,3.479,0,0,0,.872-4.842l-.04-.057A3.479,3.479,0,0,0,153.29,1108.133Z" transform="translate(-123.523 -959.258)" fill="#fff"/>
        </g>
        <path id="Path_8872" data-name="Path 8872" d="M361.4,1247.46c-8.232-56.329-26.937-100.457-39.34-99.933l0-.03-.027.033c-.163.008-.327.019-.488.043-2.858.418-5.107,3.271-6.777,8.106-44.656,45.813-144.859,83.511-162.868,89.532a3.438,3.438,0,0,0-1.144.647h0l-38.225,17.491a14.042,14.042,0,0,0-8.793,10.642l-.182,1.021c-.026.146-.048.292-.073.438h0q-.1.606-.188,1.214l-.01.067q-.079.567-.144,1.134l-.015.135q-.06.539-.107,1.078c-.005.055-.011.11-.015.165q-.05.6-.085,1.2v.011h0q-.083,1.451-.072,2.9v.05q0,.569.022,1.137c0,.035,0,.071,0,.106q.019.547.051,1.093c0,.042,0,.083.007.125q.126,2.064.438,4.106l.005.035q.087.566.187,1.129l.016.093q.1.538.207,1.073c.008.041.016.082.025.123q.119.57.252,1.138c0,.007,0,.014,0,.021h0c.129.546.269,1.089.418,1.631h0v.005q.159.579.333,1.153l.018.061q.164.539.342,1.075l.04.122q.171.509.353,1.014c.018.05.035.1.054.151q.2.557.421,1.11l0,.012h0c.212.536.436,1.068.668,1.6h0v0q.257.585.53,1.163l0,.008q.825,1.744,1.8,3.422h0q.8,1.382,1.705,2.714l.15.221a14.042,14.042,0,0,0,12.1,6.147l21.557.838,3.027,12.086c-6.822,2.689-13.47,6.409-18.127,11.525-.217.238-.427.482-.639.724l0,0,0,0c-5.942,6.787-10.135,15.207-12.973,22.552l-.178.309-.086.38a113.576,113.576,0,0,0-3.984,12.77,9.662,9.662,0,0,1-1.37,3.082h0l-2.292,2.393,0,0-.582-1.672L96.949,1383.8l-.308-.885L0,1415.6v78.328l118.589-47.976-1.107-3.18,10.391-3.618-.625-1.559,1.879-.294c3.8-.588,8.444-2.31,14.162-3.071a290.092,290.092,0,0,0,29.326-6.325c.384-.089.766-.19,1.146-.294a8.385,8.385,0,0,0,7.289,2.658l23.733-3.4,1.791-.256c.124-.018.245-.046.366-.073l.048-.006a4.3,4.3,0,0,0,3.583-5.3l-1.006-4.038c1.925-.6,3.732-1.206,5.386-1.817l6.406-2.042a8.007,8.007,0,0,0,5.2-10.061l-.049-.154a8,8,0,0,0-5.74-5.351l-2.816-1.754,2.224-.709a9.243,9.243,0,0,0,6-11.613l-.057-.178a9.224,9.224,0,0,0-5.472-5.812l-3.878-2.428.127-.232.472-.151a9.243,9.243,0,0,0,6-11.614l-.057-.177a9.233,9.233,0,0,0-6.283-6.085l-4.052-2.055h0a9.244,9.244,0,0,0,4.572-11.022l-.057-.178a9.247,9.247,0,0,0-8.808-6.437h0q-.309,0-.619.022l-.043,0q-.295.021-.59.063l-.03,0a9.272,9.272,0,0,0-.976.191,3.832,3.832,0,0,0-2.057-2.53l-17.328-8.355-2.358-9.471c39.534,1.654,118.977,8.418,164.373,32.344,2.617,2.739,5.114,4.213,7.383,4.238l.093.058-.01-.056a5.172,5.172,0,0,0,.716-.048C369.626,1351.975,369.746,1304.581,361.4,1247.46Z" transform="translate(0 -370.75)" fill="#333" opacity="0.13" style="mix-blend-mode: multiply;isolation: isolate"/>
        <g id="Group_12749" data-name="Group 12749" transform="translate(89.537 928.1)">
          <g id="Group_12746" data-name="Group 12746" transform="translate(0 22.859)">
            <path id="Path_8873" data-name="Path 8873" d="M347,1743.291l-17.123,11.578-13.154,22.866-3.362,14.791-1.737,3.816-8.877,4.967-1.949.214,4.381,9.628,16.55,42.768s9.13-1.625,22.9-3.457c5.663-.754,18.3-5.161,29.056-8.053,4.911-1.145,9.5-3.645,14.771-4.886l-26.935-96.217Z" transform="translate(-300.799 -1738.762)" fill="#ffbd99"/>
            <path id="Path_8874" data-name="Path 8874" d="M652.574,1810.381l-4.312-2.7,6.564-11.963-5.05-5.658-5.308-2.692-4.294-17.638-4.743.675-6.541-3.61,19.407,80.277c5.306-2.131,8.631-4.325,8.562-6.551-.354.113.131-.456-.214-.345a11.275,11.275,0,0,0-.241-5.2l-1.488-3.144-5.961-3.713,6.18-12.185Z" transform="translate(-531.229 -1756.665)" fill="#ffbd99"/>
            <path id="Path_8875" data-name="Path 8875" d="M523.368,1732.761l-18.587,2.543,26.935,96.217c11.1-2.615,22.127-5.425,29.415-8.353l-19.407-80.277Z" transform="translate(-444.063 -1732.761)" fill="#e8a680"/>
          </g>
          <g id="Group_12747" data-name="Group 12747" transform="translate(43.556)">
            <path id="Path_8876" data-name="Path 8876" d="M484.564,1655.968l-37.439,9.57,28.129,112.3a8.867,8.867,0,0,0,9.633,7l23.734-3.4,1.79-.256c.125-.018.245-.046.365-.073l.048-.007a4.3,4.3,0,0,0,3.583-5.3Z" transform="translate(-447.125 -1655.968)" fill="#900"/>
          </g>
          <path id="Path_8877" data-name="Path 8877" d="M625.665,1994.749l-25,7.967a8.008,8.008,0,0,1-10.061-5.2l-.049-.154a8.008,8.008,0,0,1,5.2-10.061l25-7.967a8.008,8.008,0,0,1,10.061,5.2l.049.154A8.008,8.008,0,0,1,625.665,1994.749Z" transform="translate(-504.041 -1882.814)" fill="#ffbd99"/>
          <path id="Rectangle_1545" data-name="Rectangle 1545" d="M9.336,0H39.7a9.336,9.336,0,0,1,9.336,9.336v0A9.336,9.336,0,0,1,39.7,18.673H9.337A9.337,9.337,0,0,1,0,9.336v0A9.336,9.336,0,0,1,9.336,0Z" transform="translate(76.855 88.2) rotate(-17.679)" fill="#ffbd99"/>
          <path id="Path_8878" data-name="Path 8878" d="M589.607,1859.854l-32.975,10.511a9.243,9.243,0,0,1-11.613-6l-.057-.178a9.243,9.243,0,0,1,6-11.613l32.975-10.511a9.243,9.243,0,0,1,11.613,6l.057.178A9.243,9.243,0,0,1,589.607,1859.854Z" transform="translate(-471.974 -1786.361)" fill="#ffbd99"/>
          <path id="Rectangle_1546" data-name="Rectangle 1546" d="M9.336,0H43.759A9.337,9.337,0,0,1,53.1,9.337v0a9.336,9.336,0,0,1-9.336,9.336H9.336A9.336,9.336,0,0,1,0,9.336v0A9.336,9.336,0,0,1,9.336,0Z" transform="matrix(0.953, -0.304, 0.304, 0.953, 64.359, 49.68)" fill="#ffbd99"/>
          <g id="Group_12748" data-name="Group 12748" transform="translate(0 22.859)" opacity="0.4" style="mix-blend-mode: multiply;isolation: isolate">
            <path id="Path_8879" data-name="Path 8879" d="M336.664,1815.89c20.887-2.275,30.593-16.691,28.523-34.907-1.005-8.849-2.649-17.17-4.138-21.481q.278-.015.557-.036c5.3-.419,10.453-3.82,12.849-5.249a20.842,20.842,0,0,0,3.9,2.125c5.035,2.516,8.006,3.361,13.69,3.46,7.426.129,13.561-2.941,17.237-9.386l.092-.161a6.489,6.489,0,0,0,.732-4.412c-.121,0-.242-.014-.364-.014h0a9.212,9.212,0,0,0-2.546.363l-2.2.313-24.9-13.741L347,1737.29l-17.123,11.578-13.154,22.866-3.362,14.791-1.737,3.816-8.877,4.967-1.949.215h0l34.448,18.22Z" transform="translate(-300.799 -1732.761)" fill="#be894a"/>
          </g>
          <path id="Path_8880" data-name="Path 8880" d="M300.8,1788.874l7.571-4.736a9.716,9.716,0,0,0,4.285-5.9c1.864-7.551,7.076-24.889,17.867-36.741,14.141-15.531,46.623-18.2,46.623-18.2l28.284,13.637a3.85,3.85,0,0,1,1.672,5.375l-.092.162c-5.68,9.959-16.649,8.665-26.823,4.653-1.734-.684-4.292-1.368-5.918-2.784,0,0-8.432,7.157-17.069,5.7,0,0,21.855,52.562-21.953,57.056Z" transform="translate(-300.799 -1703.254)" fill="#ffbd99"/>
        </g>
        <path id="Path_8881" data-name="Path 8881" d="M359.143,1469.384l-38.225,17.491a14.042,14.042,0,0,0-8.793,10.642l-.182,1.021a45.852,45.852,0,0,0,7.2,33.809l.15.221a14.042,14.042,0,0,0,12.1,6.147l40.85,1.588Z" transform="translate(-218.588 -596.823)" fill="#bf0000"/>
        <path id="Path_8882" data-name="Path 8882" d="M655.751,1242.343l-.014-.082-.013-.082-.054-.335-16.427-102.9c-39.846,49.44-151.088,91.338-170.159,97.714a4.14,4.14,0,0,0-2.6,3.36,47.061,47.061,0,0,0-.341,7.446,169.229,169.229,0,0,0,8.6,51.5,47.129,47.129,0,0,0,2.743,6.931,4.142,4.142,0,0,0,3.553,2.332c20.107-.168,138.928,3.3,192.678,37.113l-17.906-102.656Z" transform="translate(-327.385 -364.741)" fill="#f7f7f7"/>
        <g id="Group_12756" data-name="Group 12756" transform="translate(92.645 901.298)" opacity="0.48">
          <g id="Group_12755" data-name="Group 12755">
            <g id="Group_12750" data-name="Group 12750" transform="translate(0.073)">
              <path id="Path_8883" data-name="Path 8883" d="M320.765,1568.056l-.007-.048a2.413,2.413,0,0,0-2.722-2.058l-5.986.832a45.9,45.9,0,0,0-.565,5l7.222-1A2.413,2.413,0,0,0,320.765,1568.056Z" transform="translate(-311.485 -1565.927)" fill="#900"/>
            </g>
            <g id="Group_12751" data-name="Group 12751" transform="translate(0 6.485)">
              <path id="Path_8884" data-name="Path 8884" d="M321.494,1589.843l-.007-.048a2.413,2.413,0,0,0-2.722-2.058l-7.516,1.044a45.774,45.774,0,0,0,.162,4.9l8.024-1.115A2.413,2.413,0,0,0,321.494,1589.843Z" transform="translate(-311.24 -1587.714)" fill="#900"/>
            </g>
            <g id="Group_12752" data-name="Group 12752" transform="translate(0.357 13.036)">
              <path id="Path_8885" data-name="Path 8885" d="M323.247,1611.851l-.007-.048a2.413,2.413,0,0,0-2.722-2.058l-8.078,1.122a45.923,45.923,0,0,0,.862,4.8l7.887-1.1A2.413,2.413,0,0,0,323.247,1611.851Z" transform="translate(-312.44 -1609.722)" fill="#900"/>
            </g>
            <g id="Group_12753" data-name="Group 12753" transform="translate(1.637 19.521)">
              <path id="Path_8886" data-name="Path 8886" d="M327.167,1633.638l-.007-.048a2.413,2.413,0,0,0-2.722-2.058l-7.7,1.07a45.831,45.831,0,0,0,1.567,4.7l6.8-.945A2.413,2.413,0,0,0,327.167,1633.638Z" transform="translate(-316.74 -1631.509)" fill="#900"/>
            </g>
            <g id="Group_12754" data-name="Group 12754" transform="translate(3.872 26.007)">
              <path id="Path_8887" data-name="Path 8887" d="M333.342,1655.425l-.007-.048a2.413,2.413,0,0,0-2.722-2.058l-6.365.884a45.848,45.848,0,0,0,2.335,4.6l4.7-.653A2.413,2.413,0,0,0,333.342,1655.425Z" transform="translate(-324.249 -1653.296)" fill="#900"/>
            </g>
          </g>
        </g>
        <path id="Path_8888" data-name="Path 8888" d="M489.323,1281.042v-.024a1.237,1.237,0,0,1,.835-1.116c31.4-10.847,116.485-45.973,159.326-86.748a1.238,1.238,0,0,1,2.076.705l2.065,12.941a1.241,1.241,0,0,1-.508,1.21c-23.774,16.8-54.11,32.979-90.22,48.123-27.8,11.657-53.618,20.427-71.969,26.151A1.241,1.241,0,0,1,489.323,1281.042Z" transform="translate(-343.668 -402.577)" fill="#fff"/>
        <path id="Path_8889" data-name="Path 8889" d="M689.2,1667.918c-53.509-23.369-141.6-28.893-175.118-29.06a2.811,2.811,0,0,1-2.622-1.84c-.277-.749-.605-1.679-.991-2.827-.946-2.817-1.819-5.7-2.611-8.614a2.81,2.81,0,0,1,2.323-3.515l.032,0c59.2-8.224,134.177,4.916,176.134,14.181a2.811,2.811,0,0,1,2.163,2.264l4.6,26.358A2.814,2.814,0,0,1,689.2,1667.918Z" transform="translate(-356.617 -702.228)" fill="#e2e2e2" opacity="0.69"/>
        <path id="Path_8890" data-name="Path 8890" d="M1061.155,1238.956c8.348,57.121,8.227,104.515-4.166,106.326s-32.367-42.646-40.714-99.768-7.373-104.635,5.021-106.446S1052.808,1181.835,1061.155,1238.956Z" transform="translate(-709.952 -364.793)" fill="#bf0000"/>
        <path id="Path_8891" data-name="Path 8891" d="M1074.662,1264.689c7.468,51.1,8.642,93.317-.144,94.6s-24.2-38.848-31.671-89.952-8.036-93.4.749-94.685S1067.194,1213.586,1074.662,1264.689Z" transform="translate(-728.411 -389.802)" fill="#900"/>
        <rect id="Rectangle_1547" data-name="Rectangle 1547" width="16.482" height="62.439" transform="translate(81.58 1012.307) rotate(-19.198)" fill="#fff"/>
        <path id="Path_8892" data-name="Path 8892" d="M108.394,1992.866,0,2036.583v-80.056l86.446-26.692Z" transform="translate(0 -920.214)" fill="#263742"/>
        <g id="Group_12758" data-name="Group 12758" transform="translate(159.759 956.373)">
          <g id="Group_12757" data-name="Group 12757" transform="translate(0 20.681)">
            <path id="Path_8893" data-name="Path 8893" d="M543.988,1820.427l-3.235,1.059a5.869,5.869,0,0,0-3.753,7.4l.037.112a5.869,5.869,0,0,0,7.4,3.753l3.235-1.059Z" transform="translate(-536.708 -1820.427)" fill="#ffcab0"/>
            <path id="Path_8894" data-name="Path 8894" d="M565.468,1883.152l-3.445,1.127a6.251,6.251,0,0,0-4,7.885l.039.12a6.251,6.251,0,0,0,7.885,4l3.445-1.127Z" transform="translate(-551.461 -1864.481)" fill="#ffcab0"/>
            <path id="Path_8895" data-name="Path 8895" d="M587.458,1949.033l-3.3,1.078a5.981,5.981,0,0,0-3.825,7.545l.038.115a5.981,5.981,0,0,0,7.545,3.825l3.3-1.079Z" transform="translate(-567.14 -1910.752)" fill="#ffcab0"/>
            <path id="Path_8896" data-name="Path 8896" d="M607.327,2014.208l-2.756.9a5,5,0,0,0-3.2,6.307l.032.1a5,5,0,0,0,6.307,3.2l2.756-.9Z" transform="translate(-581.95 -1956.526)" fill="#ffcab0"/>
          </g>
          <path id="Path_8897" data-name="Path 8897" d="M608.745,1750.95l-2.457,6.4,4.235,1.43a7.07,7.07,0,0,0,8.245-2.932l.03-.048Z" transform="translate(-585.577 -1750.95)" fill="#ffcab0"/>
        </g>
        <g id="Group_12759" data-name="Group 12759" transform="translate(308.717 803.801)" opacity="0.59">
          <path id="Path_8898" data-name="Path 8898" d="M1054.215,1477.906q.309,2.208.634,4.439.358,2.451.74,4.867-.371-2.46-.741-4.99Q1054.527,1480.025,1054.215,1477.906Z" transform="translate(-1049.13 -1406.609)" fill="#900"/>
          <path id="Path_8899" data-name="Path 8899" d="M1062.759,1311.755c-6.324-43.277-16.617-64.3-25.355-73.369-1,16.514.761,42.3,4.812,71.3q.312,2.122.633,4.315.37,2.533.741,4.99c5.127,32.435,13.356,59.914,20.8,74.314.046.049.093.1.139.147C1068.942,1381.282,1068.9,1353.8,1062.759,1311.755Z" transform="translate(-1037.131 -1238.386)" fill="#7f0012"/>
        </g>
        <g id="Group_12760" data-name="Group 12760" transform="translate(310.855 850.697)">
          <path id="Path_8900" data-name="Path 8900" d="M1059.612,1425.953l-.7-5.071-4.223-24.165-10.371-.786c.916,9.112,2.115,18.8,3.581,28.839,1.49,10.2,3.3,19.954,5.3,29.035l10.845-3.822Z" transform="translate(-1044.314 -1395.932)" fill="#e5e5e5"/>
        </g>
        <path id="Path_8901" data-name="Path 8901" d="M1083.144,1424.338c2.189,14.755,2.159,27-1.089,27.468s-8.483-11.014-10.672-25.769-1.935-27.03,1.313-27.5S1080.955,1409.583,1083.144,1424.338Z" transform="translate(-751.469 -547.056)" fill="#fff"/>
        <circle id="Ellipse_360" data-name="Ellipse 360" cx="4.241" cy="4.241" r="4.241" transform="translate(74.703 1018.092)" fill="#fff"/>
        <circle id="Ellipse_361" data-name="Ellipse 361" cx="4.241" cy="4.241" r="4.241" transform="translate(61.306 1022.333)" fill="#fff"/>
        <path id="Path_8902" data-name="Path 8902" d="M328.314,1920.617l2.3-2.4,19.936,58.411-2.589.4Z" transform="translate(-230.587 -912.057)" fill="#333" opacity="0.13" style="mix-blend-mode: multiply;isolation: isolate"/>
        <path id="Path_8903" data-name="Path 8903" d="M1320.222,1422.352a6.226,6.226,0,0,1-6.219-5.662l-.015-.153a6.263,6.263,0,0,1,5.634-6.82l60.164-5.737c.2-.019.4-.029.6-.029a6.226,6.226,0,0,1,6.219,5.662l.014.152a6.255,6.255,0,0,1-5.634,6.821l-60.164,5.737C1320.625,1422.343,1320.422,1422.352,1320.222,1422.352Z" transform="translate(-922.841 -550.867)" fill="#f7f7f7"/>
        <path id="Path_8904" data-name="Path 8904" d="M1282.4,1190.469a6.264,6.264,0,0,1-5.146-2.69l-.087-.126a6.256,6.256,0,0,1,1.573-8.706l49.65-34.46a6.254,6.254,0,0,1,8.706,1.572l.086.124a6.255,6.255,0,0,1-1.571,8.707l-49.65,34.46A6.218,6.218,0,0,1,1282.4,1190.469Z" transform="translate(-896.213 -367.853)" fill="#f7f7f7"/>
        <path id="Path_8905" data-name="Path 8905" d="M1387.469,1622.761a6.239,6.239,0,0,1-2.048-.347l-57.107-19.784a6.263,6.263,0,0,1-3.863-7.959l.05-.144a6.25,6.25,0,0,1,7.959-3.863l57.107,19.784a6.255,6.255,0,0,1,3.863,7.959l-.05.144A6.26,6.26,0,0,1,1387.469,1622.761Z" transform="translate(-929.967 -681.759)" fill="#f7f7f7"/>
        <path id="Path_8906" data-name="Path 8906" d="M1312.661,1798.682a6.2,6.2,0,0,1-3.808-1.3l-47.907-36.845a6.255,6.255,0,0,1-1.145-8.772l.093-.12a6.254,6.254,0,0,1,8.772-1.145l47.907,36.844a6.263,6.263,0,0,1,1.145,8.772l-.093.121A6.218,6.218,0,0,1,1312.661,1798.682Z" transform="translate(-883.892 -793.351)" fill="#f7f7f7"/>
        <path id="Path_8907" data-name="Path 8907" d="M1156.8,1020.957a6.2,6.2,0,0,1-3.808-1.3l-.121-.093a6.263,6.263,0,0,1-1.145-8.773l36.845-47.907a6.254,6.254,0,0,1,8.772-1.145l.121.093a6.255,6.255,0,0,1,1.145,8.772l-36.845,47.907A6.217,6.217,0,0,1,1156.8,1020.957Z" transform="translate(-807.986 -239.377)" fill="#f7f7f7"/>
      </g>
    </g>
    <g id="Rectangle_1549" data-name="Rectangle 1549" transform="translate(-6415 6040)" fill="#fb5012" stroke="#707070" stroke-width="1" opacity="0.74">
      <rect width="1440" height="423" stroke="none"/>
      <rect x="0.5" y="0.5" width="1439" height="422" fill="none"/>
    </g>
  </g>
</svg>
