<svg xmlns="http://www.w3.org/2000/svg" width="74" height="74" viewBox="0 0 74 74">
  <g id="Group_13166" data-name="Group 13166" transform="translate(-234 -6548.497)">
    <g id="Group_13070" data-name="Group 13070" transform="translate(0 -2750.419)">
      <g id="Path_8610" data-name="Path 8610" transform="translate(234 9298.916)" fill="none">
        <path d="M37,0A37,37,0,1,1,0,37,37,37,0,0,1,37,0Z" stroke="none"/>
        <path d="M 37 2 C 32.27414321899414 2 27.69072341918945 2.925125122070312 23.37703323364258 4.749656677246094 C 19.20949935913086 6.512367248535156 15.46624374389648 9.036277770996094 12.25126647949219 12.25126647949219 C 9.036277770996094 15.46624374389648 6.512367248535156 19.20949935913086 4.749656677246094 23.37703323364258 C 2.925125122070312 27.69072341918945 2 32.27414321899414 2 37 C 2 41.72585678100586 2.925125122070312 46.30928039550781 4.749656677246094 50.62296676635742 C 6.512367248535156 54.79050064086914 9.036277770996094 58.53375625610352 12.25126647949219 61.74873352050781 C 15.46624374389648 64.96372222900391 19.20949935913086 67.48763275146484 23.37703323364258 69.25034332275391 C 27.69072341918945 71.07487487792969 32.27414321899414 72 37 72 C 41.72585678100586 72 46.30928039550781 71.07487487792969 50.62296676635742 69.25034332275391 C 54.79050064086914 67.48763275146484 58.53375625610352 64.96372222900391 61.74873352050781 61.74873352050781 C 64.96372222900391 58.53375625610352 67.48763275146484 54.79050064086914 69.25034332275391 50.62296676635742 C 71.07487487792969 46.30928039550781 72 41.72585678100586 72 37 C 72 32.27414321899414 71.07487487792969 27.69072341918945 69.25034332275391 23.37703323364258 C 67.48763275146484 19.20949935913086 64.96372222900391 15.46624374389648 61.74873352050781 12.25126647949219 C 58.53375625610352 9.036277770996094 54.79050064086914 6.512367248535156 50.62296676635742 4.749656677246094 C 46.30928039550781 2.925125122070312 41.72585678100586 2 37 2 M 37 0 C 57.43453216552734 0 74 16.56546783447266 74 37 C 74 57.43453216552734 57.43453216552734 74 37 74 C 16.56546783447266 74 0 57.43453216552734 0 37 C 0 16.56546783447266 16.56546783447266 0 37 0 Z" stroke="none" fill="#fb5012"/>
      </g>
    </g>
    <g id="android" transform="translate(201.969 6564.178)">
      <g id="Group_13139" data-name="Group 13139" transform="translate(59.953 14.858)">
        <g id="Group_13138" data-name="Group 13138" transform="translate(0)">
          <path id="Path_9201" data-name="Path 9201" d="M156.015,192.034H139.508a.826.826,0,0,0-.825.825v13.205a4.134,4.134,0,0,0,3.3,4.044v4.209a2.476,2.476,0,1,0,4.952,0v-4.127h1.651v4.127a2.476,2.476,0,1,0,4.952,0v-4.209a4.132,4.132,0,0,0,3.3-4.044V192.859A.825.825,0,0,0,156.015,192.034Z" transform="translate(-138.683 -192.034)" fill="#fb5012"/>
        </g>
      </g>
      <g id="Group_13141" data-name="Group 13141" transform="translate(59.953 -0.001)">
        <g id="Group_13140" data-name="Group 13140" transform="translate(0 0)">
          <path id="Path_9202" data-name="Path 9202" d="M152.082,4.4l1.391-3.247A.825.825,0,0,0,151.957.5l-1.391,3.248a8.995,8.995,0,0,0-5.6,0L143.568.5a.824.824,0,1,0-1.515.649L143.444,4.4a9.085,9.085,0,0,0-4.76,7.984.826.826,0,0,0,.825.825h16.506a.826.826,0,0,0,.825-.825A9.087,9.087,0,0,0,152.082,4.4Zm-7.621,5.508a.825.825,0,1,1,.825-.825A.826.826,0,0,1,144.461,9.906Zm6.6,0a.825.825,0,1,1,.825-.825A.826.826,0,0,1,151.064,9.906Z" transform="translate(-138.684 0.001)" fill="#fb5012"/>
        </g>
      </g>
      <g id="Group_13143" data-name="Group 13143" transform="translate(79.76 14.858)">
        <g id="Group_13142" data-name="Group 13142">
          <path id="Path_9203" data-name="Path 9203" d="M397.16,192.034a2.479,2.479,0,0,0-2.476,2.476v8.253a2.476,2.476,0,0,0,4.952,0V194.51A2.479,2.479,0,0,0,397.16,192.034Z" transform="translate(-394.684 -192.034)" fill="#800020"/>
        </g>
      </g>
      <g id="Group_13145" data-name="Group 13145" transform="translate(53.35 14.858)">
        <g id="Group_13144" data-name="Group 13144">
          <path id="Path_9204" data-name="Path 9204" d="M55.826,192.034a2.479,2.479,0,0,0-2.476,2.476v8.253a2.476,2.476,0,0,0,4.952,0V194.51A2.479,2.479,0,0,0,55.826,192.034Z" transform="translate(-53.35 -192.034)" fill="#800020"/>
        </g>
      </g>
    </g>
  </g>
</svg>
