<svg xmlns="http://www.w3.org/2000/svg" width="49.004" height="49.004" viewBox="0 0 49.004 49.004">
  <g id="Group_12854" data-name="Group 12854" transform="translate(-720 -9955.742)">
    <g id="Ellipse_332" data-name="Ellipse 332" transform="translate(720 9955.742)" fill="none" stroke="#fb5012" stroke-width="2">
      <circle cx="24.502" cy="24.502" r="24.502" stroke="none"/>
      <circle cx="24.502" cy="24.502" r="23.502" fill="none"/>
    </g>
    <g id="Thumbs_Up" data-name="Thumbs Up" transform="translate(732.482 9967.923)">
      <path id="Path_8683" data-name="Path 8683" d="M4,42.3V53.72a.3.3,0,0,0,.3.3h2.7V42H4.3A.3.3,0,0,0,4,42.3Z" transform="translate(-4 -30.28)" fill="#800020"/>
      <path id="Path_8684" data-name="Path 8684" d="M53.3,6.606a.3.3,0,0,0,.3-.3V3.3a.3.3,0,1,0-.6,0V6.306A.3.3,0,0,0,53.3,6.606Z" transform="translate(-38.275 -3)" fill="#800020"/>
      <path id="Path_8685" data-name="Path 8685" d="M39.657,12.081a.3.3,0,1,0,.425-.425L37.957,9.531a.3.3,0,1,0-.425.425Z" transform="translate(-27.394 -7.507)" fill="#800020"/>
      <path id="Path_8686" data-name="Path 8686" d="M31.3,25.6h3.005a.3.3,0,1,0,0-.6H31.3a.3.3,0,1,0,0,.6Z" transform="translate(-22.886 -18.389)" fill="#800020"/>
      <path id="Path_8687" data-name="Path 8687" d="M62,12.094l2.125-2.125a.3.3,0,0,0-.425-.425L61.574,11.67a.3.3,0,1,0,.425.425Z" transform="translate(-44.211 -7.52)" fill="#800020"/>
      <path id="Path_8688" data-name="Path 8688" d="M65,25.3a.3.3,0,0,0,.3.3h3.005a.3.3,0,1,0,0-.6H65.3A.3.3,0,0,0,65,25.3Z" transform="translate(-46.669 -18.389)" fill="#800020"/>
      <ellipse id="Ellipse_335" data-name="Ellipse 335" cy="0.415" ry="0.415" transform="translate(6.645 21.595)"/>
      <path id="Path_8689" data-name="Path 8689" d="M21.109,39H16.3a.3.3,0,0,0-.3.3V52.523a.3.3,0,0,0,.3.3h4.808a.3.3,0,0,0,.3-.3V39.3A.3.3,0,0,0,21.109,39Zm-2.1,12.321a.9.9,0,1,1,.9-.9.9.9,0,0,1-.9.9Z" transform="translate(-12.394 -28.182)" fill="#800020"/>
      <path id="Path_8690" data-name="Path 8690" d="M50.421,27.909a1.852,1.852,0,0,0-1.873-1.7H42.332a4.429,4.429,0,0,0,.88-2.641V20.864a1.844,1.844,0,0,0-1.567-1.85A1.8,1.8,0,0,0,39.606,20.8v1.512a3.924,3.924,0,0,1-.8,2.426A3.794,3.794,0,0,1,36,26.206V38.172a7.4,7.4,0,0,0,3.068.661H44.21a2.044,2.044,0,0,0,1.778-.983,1.631,1.631,0,0,0,.121-1.421h-3.2a.3.3,0,0,1,0-.6h3.1a2.044,2.044,0,0,0,1.778-.983,1.631,1.631,0,0,0,.121-1.421h-3.8a.3.3,0,1,1,0-.6h3.444s0-.006-.006-.006a1.789,1.789,0,0,0,1.563-2.4h-3.8a.3.3,0,0,1,0-.6H48.76s0-.006-.006-.006a1.806,1.806,0,0,0,1.668-1.9Z" transform="translate(-26.384 -14.191)" fill="#fb5012"/>
    </g>
  </g>
</svg>
