<svg xmlns="http://www.w3.org/2000/svg" width="72.167" height="72.167" viewBox="0 0 72.167 72.167">
  <g id="Group_13171" data-name="Group 13171" transform="translate(-930 -6969.595)">
    <g id="Group_13016" data-name="Group 13016" transform="translate(0 -2723.32)">
      <g id="Path_8532" data-name="Path 8532" transform="translate(930 9692.915)" fill="none">
        <path d="M36.083,0A36.083,36.083,0,1,1,0,36.083,36.083,36.083,0,0,1,36.083,0Z" stroke="none"/>
        <path d="M 36.08349609375 1.999992370605469 C 31.48137283325195 1.999992370605469 27.01797485351562 2.900886535644531 22.8172721862793 4.677627563476562 C 18.75887298583984 6.394187927246094 15.11363983154297 8.852008819580078 11.98281860351562 11.98281860351562 C 8.852008819580078 15.11363983154297 6.394187927246094 18.75887298583984 4.677627563476562 22.8172721862793 C 2.900886535644531 27.01797485351562 1.999992370605469 31.48137283325195 1.999992370605469 36.08349609375 C 1.999992370605469 40.68561553955078 2.900886535644531 45.14901733398438 4.677627563476562 49.34971618652344 C 6.394187927246094 53.40811920166016 8.852008819580078 57.05335235595703 11.98281860351562 60.18417358398438 C 15.11363983154297 63.31498718261719 18.75887298583984 65.77280426025391 22.8172721862793 67.48936462402344 C 27.01797485351562 69.26610565185547 31.48137283325195 70.16699981689453 36.08349609375 70.16699981689453 C 40.68561553955078 70.16699981689453 45.14901733398438 69.26610565185547 49.34971618652344 67.48936462402344 C 53.40811920166016 65.77280426025391 57.05335235595703 63.31498718261719 60.18417358398438 60.18417358398438 C 63.31498718261719 57.05335235595703 65.77280426025391 53.40811920166016 67.48936462402344 49.34971618652344 C 69.26610565185547 45.14901733398438 70.16699981689453 40.68561553955078 70.16699981689453 36.08349609375 C 70.16699981689453 31.48137283325195 69.26610565185547 27.01797485351562 67.48936462402344 22.8172721862793 C 65.77280426025391 18.75887298583984 63.31498718261719 15.11363983154297 60.18417358398438 11.98281860351562 C 57.05335235595703 8.852008819580078 53.40811920166016 6.394187927246094 49.34971618652344 4.677627563476562 C 45.14901733398438 2.900886535644531 40.68561553955078 1.999992370605469 36.08349609375 1.999992370605469 M 36.08349609375 -7.62939453125e-06 C 56.01186370849609 -7.62939453125e-06 72.16699981689453 16.15512847900391 72.16699981689453 36.08349609375 C 72.16699981689453 56.01186370849609 56.01186370849609 72.16699981689453 36.08349609375 72.16699981689453 C 16.15512847900391 72.16699981689453 -7.62939453125e-06 56.01186370849609 -7.62939453125e-06 36.08349609375 C -7.62939453125e-06 16.15512847900391 16.15512847900391 -7.62939453125e-06 36.08349609375 -7.62939453125e-06 Z" stroke="none" fill="#fb5012"/>
      </g>
    </g>
    <g id="window-of-four-rounded-squares" transform="translate(950 6989)">
      <path id="Path_9200" data-name="Path 9200" d="M15.2,3.287v8.626A3.287,3.287,0,0,1,11.913,15.2H3.286A3.287,3.287,0,0,1,0,11.913V3.287A3.288,3.288,0,0,1,3.286,0h8.627A3.286,3.286,0,0,1,15.2,3.287ZM29.714,0H21.087A3.288,3.288,0,0,0,17.8,3.287v8.626A3.287,3.287,0,0,0,21.087,15.2h8.627A3.287,3.287,0,0,0,33,11.913V3.287A3.288,3.288,0,0,0,29.714,0Zm-17.8,17.8H3.286A3.286,3.286,0,0,0,0,21.087v8.627A3.288,3.288,0,0,0,3.286,33h8.627A3.288,3.288,0,0,0,15.2,29.714V21.087A3.284,3.284,0,0,0,11.913,17.8Zm17.8,0H21.087A3.287,3.287,0,0,0,17.8,21.087v8.627A3.288,3.288,0,0,0,21.087,33h8.627A3.288,3.288,0,0,0,33,29.714V21.087A3.286,3.286,0,0,0,29.714,17.8Z" fill="#800020"/>
    </g>
  </g>
</svg>
