<svg xmlns="http://www.w3.org/2000/svg" width="49.004" height="49.004" viewBox="0 0 49.004 49.004">
  <g id="Group_13059" data-name="Group 13059" transform="translate(-966.884 -11882.68)">
    <g id="Ellipse_332" data-name="Ellipse 332" transform="translate(966.884 11882.68)" fill="none" stroke="#fb5012" stroke-width="2">
      <circle cx="24.502" cy="24.502" r="24.502" stroke="none"/>
      <circle cx="24.502" cy="24.502" r="23.502" fill="none"/>
    </g>
    <g id="maintenance" transform="translate(961.24 11891.947)">
      <g id="Group_13054" data-name="Group 13054" transform="translate(35.588 13.059)">
        <g id="Group_13053" data-name="Group 13053">
          <path id="Path_9087" data-name="Path 9087" d="M310.916,197.257a.545.545,0,0,1,.512-.36h1.278v-1.088h-1.278a.544.544,0,0,1-.512-.36,2.865,2.865,0,0,0-.11-.266.543.543,0,0,1,.106-.619l.9-.9-.769-.77-.9.9a.546.546,0,0,1-.619.107,2.655,2.655,0,0,0-.263-.109.544.544,0,0,1-.363-.513V192h-1.088v1.278a.544.544,0,0,1-.363.513,2.692,2.692,0,0,0-.263.109.544.544,0,0,1-.619-.107l-.9-.9-.769.77.9.9a.543.543,0,0,1,.106.619,2.857,2.857,0,0,0-.11.266.544.544,0,0,1-.512.36H304V196.9h1.278a.544.544,0,0,1,.512.36q.049.137.11.266a.543.543,0,0,1-.106.619l-.9.9.769.77.9-.9a.544.544,0,0,1,.618-.107,2.813,2.813,0,0,0,.265.11.544.544,0,0,1,.363.513v1.278H308.9v-1.278a.544.544,0,0,1,.363-.513,2.85,2.85,0,0,0,.265-.11.545.545,0,0,1,.618.107l.9.9.769-.77-.9-.9a.543.543,0,0,1-.106-.619A2.875,2.875,0,0,0,310.916,197.257Zm-2.563.184a1.088,1.088,0,1,1,1.088-1.088A1.089,1.089,0,0,1,308.353,197.441Z" transform="translate(-304 -192)" fill="#800020"/>
        </g>
      </g>
      <g id="Group_13056" data-name="Group 13056" transform="translate(16 13.059)">
        <g id="Group_13055" data-name="Group 13055" transform="translate(0)">
          <path id="Path_9088" data-name="Path 9088" d="M30.494,202.2a.545.545,0,0,1,.527-.408h2.391v-2.176H31.021a.545.545,0,0,1-.527-.408,5.94,5.94,0,0,0-.637-1.539.545.545,0,0,1,.084-.661l1.69-1.69-1.539-1.539-1.69,1.69a.543.543,0,0,1-.662.084,5.944,5.944,0,0,0-1.538-.637.544.544,0,0,1-.408-.527V192H23.617v2.391a.544.544,0,0,1-.408.527,5.945,5.945,0,0,0-1.538.637.543.543,0,0,1-.662-.084l-1.69-1.69-1.539,1.539,1.69,1.69a.545.545,0,0,1,.084.661,5.938,5.938,0,0,0-.637,1.539.545.545,0,0,1-.527.408H16v2.176h2.391a.545.545,0,0,1,.527.408,5.941,5.941,0,0,0,.637,1.539.545.545,0,0,1-.084.661l-1.69,1.69,1.539,1.539,1.69-1.69a.545.545,0,0,1,.662-.084,5.944,5.944,0,0,0,1.538.637.544.544,0,0,1,.408.527v2.391h2.176v-2.391a.544.544,0,0,1,.408-.527,5.946,5.946,0,0,0,1.538-.637.545.545,0,0,1,.662.084l1.69,1.69,1.539-1.539-1.69-1.69a.545.545,0,0,1-.084-.661A5.943,5.943,0,0,0,30.494,202.2Zm-5.788,1.768a3.265,3.265,0,1,1,3.265-3.265A3.268,3.268,0,0,1,24.706,203.97Z" transform="translate(-16 -192)" fill="#fb5012"/>
        </g>
      </g>
      <g id="Group_13058" data-name="Group 13058" transform="translate(22.529)">
        <g id="Group_13057" data-name="Group 13057">
          <path id="Path_9089" data-name="Path 9089" d="M117.441,9.25V8.162h9.69c-.115-2.757-1.113-7.121-4.249-7.575V5.441h-1.088V0h-2.176V5.441h-1.088V.586c-3.136.455-4.134,4.818-4.249,7.575h2.072V9.25H112v1.088h17.411V9.25Z" transform="translate(-112)" fill="#fb5012"/>
        </g>
      </g>
    </g>
  </g>
</svg>
