<svg xmlns="http://www.w3.org/2000/svg" width="72.167" height="72.167" viewBox="0 0 72.167 72.167">
  <g id="Group_13115" data-name="Group 13115" transform="translate(-802.5 -3201.873)">
    <g id="Group_13093" data-name="Group 13093" transform="translate(595.5 -1009.616)">
      <g id="Group_12528" data-name="Group 12528" transform="translate(0 -1537.411)">
        <g id="Path_8452" data-name="Path 8452" transform="translate(207 5748.9)" fill="none">
          <path d="M36.083,0A36.083,36.083,0,1,1,0,36.083,36.083,36.083,0,0,1,36.083,0Z" stroke="none"/>
          <path d="M 36.08349609375 1.999992370605469 C 31.48137283325195 1.999992370605469 27.01797485351562 2.900886535644531 22.8172721862793 4.677627563476562 C 18.75887298583984 6.394187927246094 15.11363983154297 8.852008819580078 11.98281860351562 11.98281860351562 C 8.852008819580078 15.11363983154297 6.394187927246094 18.75887298583984 4.677627563476562 22.8172721862793 C 2.900886535644531 27.01797485351562 1.999992370605469 31.48137283325195 1.999992370605469 36.08349609375 C 1.999992370605469 40.68561553955078 2.900886535644531 45.14901733398438 4.677627563476562 49.34971618652344 C 6.394187927246094 53.40811920166016 8.852008819580078 57.05335235595703 11.98281860351562 60.18417358398438 C 15.11363983154297 63.31498718261719 18.75887298583984 65.77280426025391 22.8172721862793 67.48936462402344 C 27.01797485351562 69.26610565185547 31.48137283325195 70.16699981689453 36.08349609375 70.16699981689453 C 40.68561553955078 70.16699981689453 45.14901733398438 69.26610565185547 49.34971618652344 67.48936462402344 C 53.40811920166016 65.77280426025391 57.05335235595703 63.31498718261719 60.18417358398438 60.18417358398438 C 63.31498718261719 57.05335235595703 65.77280426025391 53.40811920166016 67.48936462402344 49.34971618652344 C 69.26610565185547 45.14901733398438 70.16699981689453 40.68561553955078 70.16699981689453 36.08349609375 C 70.16699981689453 31.48137283325195 69.26610565185547 27.01797485351562 67.48936462402344 22.8172721862793 C 65.77280426025391 18.75887298583984 63.31498718261719 15.11363983154297 60.18417358398438 11.98281860351562 C 57.05335235595703 8.852008819580078 53.40811920166016 6.394187927246094 49.34971618652344 4.677627563476562 C 45.14901733398438 2.900886535644531 40.68561553955078 1.999992370605469 36.08349609375 1.999992370605469 M 36.08349609375 -7.62939453125e-06 C 56.01186370849609 -7.62939453125e-06 72.16699981689453 16.15512847900391 72.16699981689453 36.08349609375 C 72.16699981689453 56.01186370849609 56.01186370849609 72.16699981689453 36.08349609375 72.16699981689453 C 16.15512847900391 72.16699981689453 -7.62939453125e-06 56.01186370849609 -7.62939453125e-06 36.08349609375 C -7.62939453125e-06 16.15512847900391 16.15512847900391 -7.62939453125e-06 36.08349609375 -7.62939453125e-06 Z" stroke="none" fill="#fb5012"/>
        </g>
      </g>
    </g>
    <g id="clock" transform="translate(816.269 3157.308)">
      <g id="Group_13104" data-name="Group 13104" transform="translate(15.943 66.295)">
        <g id="Group_13103" data-name="Group 13103" transform="translate(0 0)">
          <path id="Path_9151" data-name="Path 9151" d="M206.177,136.012a1.31,1.31,0,0,1,1.309-1.309h3.869a14.427,14.427,0,0,0-13.033-13.033v3.869a1.309,1.309,0,0,1-2.618,0V121.67A14.427,14.427,0,0,0,182.67,134.7h3.869a1.309,1.309,0,1,1,0,2.618H182.67A14.427,14.427,0,0,0,195.7,150.355v-3.869a1.309,1.309,0,1,1,2.618,0v3.869a14.427,14.427,0,0,0,13.033-13.033h-3.869A1.31,1.31,0,0,1,206.177,136.012Zm-3.927,1.309h-5.237a1.31,1.31,0,0,1-1.309-1.309v-5.237a1.309,1.309,0,0,1,2.618,0V134.7h3.928a1.309,1.309,0,0,1,0,2.618Z" transform="translate(-182.67 -121.67)" fill="#800020"/>
        </g>
      </g>
      <g id="Group_13106" data-name="Group 13106" transform="translate(7.855 66.237)">
        <g id="Group_13105" data-name="Group 13105" transform="translate(0 0)">
          <path id="Path_9152" data-name="Path 9152" d="M94.1,123.618H91.309a1.309,1.309,0,1,1,0-2.618H94.1a1.309,1.309,0,0,1,0,2.618Z" transform="translate(-90 -121)" fill="#fb5012"/>
        </g>
      </g>
      <g id="Group_13108" data-name="Group 13108" transform="translate(5.237 74.092)">
        <g id="Group_13107" data-name="Group 13107">
          <path id="Path_9153" data-name="Path 9153" d="M66.72,213.618H61.309a1.309,1.309,0,1,1,0-2.618H66.72a1.309,1.309,0,0,1,0,2.618Z" transform="translate(-60 -211)" fill="#fb5012"/>
        </g>
      </g>
      <g id="Group_13110" data-name="Group 13110" transform="translate(2.618 81.947)">
        <g id="Group_13109" data-name="Group 13109">
          <path id="Path_9154" data-name="Path 9154" d="M39.339,303.618h-8.03a1.309,1.309,0,0,1,0-2.618h8.03a1.309,1.309,0,0,1,0,2.618Z" transform="translate(-30 -301)" fill="#fb5012"/>
        </g>
      </g>
      <g id="Group_13112" data-name="Group 13112" transform="translate(0 89.802)">
        <g id="Group_13111" data-name="Group 13111">
          <path id="Path_9155" data-name="Path 9155" d="M11.957,393.618H1.309a1.309,1.309,0,0,1,0-2.618H11.957a1.309,1.309,0,0,1,0,2.618Z" transform="translate(0 -391)" fill="#fb5012"/>
        </g>
      </g>
      <g id="Group_13114" data-name="Group 13114" transform="translate(26.456 61)">
        <g id="Group_13113" data-name="Group 13113">
          <path id="Path_9156" data-name="Path 9156" d="M306.959,61a3.935,3.935,0,0,0-3.829,3.052,17.116,17.116,0,0,1,7.658,0A3.935,3.935,0,0,0,306.959,61Z" transform="translate(-303.13 -61)" fill="#fb5012"/>
        </g>
      </g>
    </g>
  </g>
</svg>
