<svg xmlns="http://www.w3.org/2000/svg" width="72.167" height="72.167" viewBox="0 0 72.167 72.167">
  <g id="Group_13168" data-name="Group 13168" transform="translate(-930 -6550.514)">
    <g id="Group_13072" data-name="Group 13072" transform="translate(0 -2750.419)">
      <g id="Path_8532" data-name="Path 8532" transform="translate(930 9300.933)" fill="none">
        <path d="M36.083,0A36.083,36.083,0,1,1,0,36.083,36.083,36.083,0,0,1,36.083,0Z" stroke="none"/>
        <path d="M 36.08349609375 1.999992370605469 C 31.48137283325195 1.999992370605469 27.01797485351562 2.900886535644531 22.8172721862793 4.677627563476562 C 18.75887298583984 6.394187927246094 15.11363983154297 8.852008819580078 11.98281860351562 11.98281860351562 C 8.852008819580078 15.11363983154297 6.394187927246094 18.75887298583984 4.677627563476562 22.8172721862793 C 2.900886535644531 27.01797485351562 1.999992370605469 31.48137283325195 1.999992370605469 36.08349609375 C 1.999992370605469 40.68561553955078 2.900886535644531 45.14901733398438 4.677627563476562 49.34971618652344 C 6.394187927246094 53.40811920166016 8.852008819580078 57.05335235595703 11.98281860351562 60.18417358398438 C 15.11363983154297 63.31498718261719 18.75887298583984 65.77280426025391 22.8172721862793 67.48936462402344 C 27.01797485351562 69.26610565185547 31.48137283325195 70.16699981689453 36.08349609375 70.16699981689453 C 40.68561553955078 70.16699981689453 45.14901733398438 69.26610565185547 49.34971618652344 67.48936462402344 C 53.40811920166016 65.77280426025391 57.05335235595703 63.31498718261719 60.18417358398438 60.18417358398438 C 63.31498718261719 57.05335235595703 65.77280426025391 53.40811920166016 67.48936462402344 49.34971618652344 C 69.26610565185547 45.14901733398438 70.16699981689453 40.68561553955078 70.16699981689453 36.08349609375 C 70.16699981689453 31.48137283325195 69.26610565185547 27.01797485351562 67.48936462402344 22.8172721862793 C 65.77280426025391 18.75887298583984 63.31498718261719 15.11363983154297 60.18417358398438 11.98281860351562 C 57.05335235595703 8.852008819580078 53.40811920166016 6.394187927246094 49.34971618652344 4.677627563476562 C 45.14901733398438 2.900886535644531 40.68561553955078 1.999992370605469 36.08349609375 1.999992370605469 M 36.08349609375 -7.62939453125e-06 C 56.01186370849609 -7.62939453125e-06 72.16699981689453 16.15512847900391 72.16699981689453 36.08349609375 C 72.16699981689453 56.01186370849609 56.01186370849609 72.16699981689453 36.08349609375 72.16699981689453 C 16.15512847900391 72.16699981689453 -7.62939453125e-06 56.01186370849609 -7.62939453125e-06 36.08349609375 C -7.62939453125e-06 16.15512847900391 16.15512847900391 -7.62939453125e-06 36.08349609375 -7.62939453125e-06 Z" stroke="none" fill="#fb5012"/>
      </g>
    </g>
    <g id="computing" transform="translate(947.42 6529.922)">
      <g id="Group_13151" data-name="Group 13151" transform="translate(0 64.403)">
        <g id="Group_13150" data-name="Group 13150">
          <path id="Path_9207" data-name="Path 9207" d="M0,362v1.094a3.284,3.284,0,0,0,3.281,3.281H17.206V362Z" transform="translate(0 -362)" fill="#800020"/>
        </g>
      </g>
      <g id="Group_13153" data-name="Group 13153" transform="translate(9.113 51.28)">
        <g id="Group_13152" data-name="Group 13152">
          <path id="Path_9208" data-name="Path 9208" d="M126.823,182a1.823,1.823,0,1,0,1.823,1.823A1.825,1.825,0,0,0,126.823,182Z" transform="translate(-125 -182)" fill="#800020"/>
        </g>
      </g>
      <g id="Group_13155" data-name="Group 13155" transform="translate(6.561 54.196)">
        <g id="Group_13154" data-name="Group 13154">
          <path id="Path_9209" data-name="Path 9209" d="M90.517,222H90v2.916h2.916v-.276A4.027,4.027,0,0,1,90.517,222Z" transform="translate(-90 -222)" fill="#800020"/>
        </g>
      </g>
      <g id="Group_13157" data-name="Group 13157" transform="translate(0 44.354)">
        <g id="Group_13156" data-name="Group 13156">
          <path id="Path_9210" data-name="Path 9210" d="M3.281,87A3.284,3.284,0,0,0,0,90.281v14.581H17.206V87Zm8.384,12.691v2.255H4.374V94.655h2.7a4.009,4.009,0,1,1,4.586,5.036Z" transform="translate(0 -87)" fill="#fb5012"/>
        </g>
      </g>
      <g id="Group_13159" data-name="Group 13159" transform="translate(25.954 56.675)">
        <g id="Group_13158" data-name="Group 13158">
          <path id="Path_9211" data-name="Path 9211" d="M356.652,256H356v2.187h2.187v-.453A3.3,3.3,0,0,1,356.652,256Z" transform="translate(-356 -256)" fill="#800020"/>
        </g>
      </g>
      <g id="Group_13161" data-name="Group 13161" transform="translate(25.444 41)">
        <g id="Group_13160" data-name="Group 13160">
          <path id="Path_9212" data-name="Path 9212" d="M349,41v4.01a.365.365,0,0,0,.365.365h5.1a.365.365,0,0,0,.365-.365V41Z" transform="translate(-349 -41)" fill="#800020"/>
        </g>
      </g>
      <g id="Group_13163" data-name="Group 13163" transform="translate(28.579 54.415)">
        <g id="Group_13162" data-name="Group 13162">
          <path id="Path_9213" data-name="Path 9213" d="M393.094,225a1.094,1.094,0,1,0,1.094,1.094A1.095,1.095,0,0,0,393.094,225Z" transform="translate(-392 -225)" fill="#800020"/>
        </g>
      </g>
      <g id="Group_13165" data-name="Group 13165" transform="translate(19.393 41)">
        <g id="Group_13164" data-name="Group 13164">
          <path id="Path_9214" data-name="Path 9214" d="M281.383,41h-1.312v4.01a2.555,2.555,0,0,1-2.552,2.552h-5.1a2.555,2.555,0,0,1-2.552-2.552V41h-1.312A2.555,2.555,0,0,0,266,43.552V69.8a2.555,2.555,0,0,0,2.552,2.552h12.831a2.555,2.555,0,0,0,2.552-2.552V43.552A2.555,2.555,0,0,0,281.383,41Zm-4.447,17.723v2.326h-6.561V54.487h2.788a3.281,3.281,0,1,1,3.773,4.235Z" transform="translate(-266 -41)" fill="#fb5012"/>
        </g>
      </g>
    </g>
  </g>
</svg>
