<svg xmlns="http://www.w3.org/2000/svg" width="72.167" height="72.167" viewBox="0 0 72.167 72.167">
  <g id="Group_13117" data-name="Group 13117" transform="translate(-183.5 -3416.975)">
    <g id="Group_13097" data-name="Group 13097" transform="translate(-23.5 -794.514)">
      <g id="Group_12528" data-name="Group 12528" transform="translate(0 -1537.411)">
        <g id="Path_8452" data-name="Path 8452" transform="translate(207 5748.9)" fill="none">
          <path d="M36.083,0A36.083,36.083,0,1,1,0,36.083,36.083,36.083,0,0,1,36.083,0Z" stroke="none"/>
          <path d="M 36.08349609375 1.999992370605469 C 31.48137283325195 1.999992370605469 27.01797485351562 2.900886535644531 22.8172721862793 4.677627563476562 C 18.75887298583984 6.394187927246094 15.11363983154297 8.852008819580078 11.98281860351562 11.98281860351562 C 8.852008819580078 15.11363983154297 6.394187927246094 18.75887298583984 4.677627563476562 22.8172721862793 C 2.900886535644531 27.01797485351562 1.999992370605469 31.48137283325195 1.999992370605469 36.08349609375 C 1.999992370605469 40.68561553955078 2.900886535644531 45.14901733398438 4.677627563476562 49.34971618652344 C 6.394187927246094 53.40811920166016 8.852008819580078 57.05335235595703 11.98281860351562 60.18417358398438 C 15.11363983154297 63.31498718261719 18.75887298583984 65.77280426025391 22.8172721862793 67.48936462402344 C 27.01797485351562 69.26610565185547 31.48137283325195 70.16699981689453 36.08349609375 70.16699981689453 C 40.68561553955078 70.16699981689453 45.14901733398438 69.26610565185547 49.34971618652344 67.48936462402344 C 53.40811920166016 65.77280426025391 57.05335235595703 63.31498718261719 60.18417358398438 60.18417358398438 C 63.31498718261719 57.05335235595703 65.77280426025391 53.40811920166016 67.48936462402344 49.34971618652344 C 69.26610565185547 45.14901733398438 70.16699981689453 40.68561553955078 70.16699981689453 36.08349609375 C 70.16699981689453 31.48137283325195 69.26610565185547 27.01797485351562 67.48936462402344 22.8172721862793 C 65.77280426025391 18.75887298583984 63.31498718261719 15.11363983154297 60.18417358398438 11.98281860351562 C 57.05335235595703 8.852008819580078 53.40811920166016 6.394187927246094 49.34971618652344 4.677627563476562 C 45.14901733398438 2.900886535644531 40.68561553955078 1.999992370605469 36.08349609375 1.999992370605469 M 36.08349609375 -7.62939453125e-06 C 56.01186370849609 -7.62939453125e-06 72.16699981689453 16.15512847900391 72.16699981689453 36.08349609375 C 72.16699981689453 56.01186370849609 56.01186370849609 72.16699981689453 36.08349609375 72.16699981689453 C 16.15512847900391 72.16699981689453 -7.62939453125e-06 56.01186370849609 -7.62939453125e-06 36.08349609375 C -7.62939453125e-06 16.15512847900391 16.15512847900391 -7.62939453125e-06 36.08349609375 -7.62939453125e-06 Z" stroke="none" fill="#fb5012"/>
        </g>
      </g>
    </g>
    <g id="third-party" transform="translate(201.152 3431.671)">
      <path id="Path_9157" data-name="Path 9157" d="M202.029,299.716l-1.155-1.733a1.079,1.079,0,1,0-1.758,1.253h-2.9a1.079,1.079,0,1,0-1.758-1.253l-1.155,1.733a1.079,1.079,0,0,0,0,1.2l1.155,1.733a1.08,1.08,0,1,0,1.757-1.253h2.9a1.08,1.08,0,1,0,1.758,1.253l1.155-1.733a1.079,1.079,0,0,0,0-1.2Z" transform="translate(-179.234 -275.808)" fill="#fb5012"/>
      <path id="Path_9158" data-name="Path 9158" d="M349.385,83.317a12.8,12.8,0,0,1,5.542,8.926,1.079,1.079,0,1,0,2.139-.282,14.954,14.954,0,0,0-6.474-10.433,1.079,1.079,0,1,0-1.206,1.789Z" transform="translate(-323.821 -75.196)" fill="#800020"/>
      <path id="Path_9159" data-name="Path 9159" d="M51.111,93.172a1.081,1.081,0,0,0,1.21-.929,12.8,12.8,0,0,1,5.542-8.926,1.079,1.079,0,1,0-1.206-1.789,14.953,14.953,0,0,0-6.475,10.433A1.079,1.079,0,0,0,51.111,93.172Z" transform="translate(-46.565 -75.197)" fill="#fb5012"/>
      <path id="Path_9160" data-name="Path 9160" d="M62.711,276.92a3.466,3.466,0,1,0-3.466,3.466A3.47,3.47,0,0,0,62.711,276.92Z" transform="translate(-51.789 -253.493)" fill="#800020"/>
      <path id="Path_9161" data-name="Path 9161" d="M7.456,369.8c-6.741-.238-10.315,9.76-4.621,10.244h9.242c5.7-.486,2.119-10.483-4.621-10.244Z" transform="translate(0 -342.907)" fill="#800020"/>
      <path id="Path_9162" data-name="Path 9162" d="M367.978,276.92a3.466,3.466,0,1,0-3.466,3.466A3.47,3.47,0,0,0,367.978,276.92Z" transform="translate(-335.105 -253.493)" fill="#800020"/>
      <path id="Path_9163" data-name="Path 9163" d="M312.723,369.8c-6.741-.238-10.315,9.76-4.621,10.245h9.242C323.04,379.558,319.463,369.561,312.723,369.8Z" transform="translate(-283.316 -342.907)" fill="#800020"/>
      <path id="Path_9164" data-name="Path 9164" d="M215.344,3.787a3.466,3.466,0,1,0-3.466,3.466A3.47,3.47,0,0,0,215.344,3.787Z" transform="translate(-193.447)" fill="#fb5012"/>
      <path id="Path_9165" data-name="Path 9165" d="M152.953,104.752a2.815,2.815,0,0,0,2.812,2.812h9.242a2.815,2.815,0,0,0,2.812-2.812C167.458,94.9,153.309,94.909,152.953,104.752Z" transform="translate(-141.955 -90.066)" fill="#fb5012"/>
    </g>
  </g>
</svg>
