<svg xmlns="http://www.w3.org/2000/svg" width="72.167" height="72.167" viewBox="0 0 72.167 72.167">
  <g id="Group_13099" data-name="Group 13099" transform="translate(-183.5 -2987.771)">
    <g id="Group_12528" data-name="Group 12528" transform="translate(-23.5 -2761.129)">
      <g id="Path_8452" data-name="Path 8452" transform="translate(207 5748.9)" fill="none">
        <path d="M36.083,0A36.083,36.083,0,1,1,0,36.083,36.083,36.083,0,0,1,36.083,0Z" stroke="none"/>
        <path d="M 36.08349609375 1.999992370605469 C 31.48137283325195 1.999992370605469 27.01797485351562 2.900886535644531 22.8172721862793 4.677627563476562 C 18.75887298583984 6.394187927246094 15.11363983154297 8.852008819580078 11.98281860351562 11.98281860351562 C 8.852008819580078 15.11363983154297 6.394187927246094 18.75887298583984 4.677627563476562 22.8172721862793 C 2.900886535644531 27.01797485351562 1.999992370605469 31.48137283325195 1.999992370605469 36.08349609375 C 1.999992370605469 40.68561553955078 2.900886535644531 45.14901733398438 4.677627563476562 49.34971618652344 C 6.394187927246094 53.40811920166016 8.852008819580078 57.05335235595703 11.98281860351562 60.18417358398438 C 15.11363983154297 63.31498718261719 18.75887298583984 65.77280426025391 22.8172721862793 67.48936462402344 C 27.01797485351562 69.26610565185547 31.48137283325195 70.16699981689453 36.08349609375 70.16699981689453 C 40.68561553955078 70.16699981689453 45.14901733398438 69.26610565185547 49.34971618652344 67.48936462402344 C 53.40811920166016 65.77280426025391 57.05335235595703 63.31498718261719 60.18417358398438 60.18417358398438 C 63.31498718261719 57.05335235595703 65.77280426025391 53.40811920166016 67.48936462402344 49.34971618652344 C 69.26610565185547 45.14901733398438 70.16699981689453 40.68561553955078 70.16699981689453 36.08349609375 C 70.16699981689453 31.48137283325195 69.26610565185547 27.01797485351562 67.48936462402344 22.8172721862793 C 65.77280426025391 18.75887298583984 63.31498718261719 15.11363983154297 60.18417358398438 11.98281860351562 C 57.05335235595703 8.852008819580078 53.40811920166016 6.394187927246094 49.34971618652344 4.677627563476562 C 45.14901733398438 2.900886535644531 40.68561553955078 1.999992370605469 36.08349609375 1.999992370605469 M 36.08349609375 -7.62939453125e-06 C 56.01186370849609 -7.62939453125e-06 72.16699981689453 16.15512847900391 72.16699981689453 36.08349609375 C 72.16699981689453 56.01186370849609 56.01186370849609 72.16699981689453 36.08349609375 72.16699981689453 C 16.15512847900391 72.16699981689453 -7.62939453125e-06 56.01186370849609 -7.62939453125e-06 36.08349609375 C -7.62939453125e-06 16.15512847900391 16.15512847900391 -7.62939453125e-06 36.08349609375 -7.62939453125e-06 Z" stroke="none" fill="#fb5012"/>
      </g>
    </g>
    <g id="web-development_7_" data-name="web-development (7)" transform="translate(199.583 3002.933)">
      <path id="Path_9140" data-name="Path 9140" d="M40,10.375V4.516A3.52,3.52,0,0,0,36.484,1H3.516A3.52,3.52,0,0,0,0,4.516v5.859ZM27.031,5.688h7.031a1.172,1.172,0,1,1,0,2.344H27.031a1.172,1.172,0,0,1,0-2.344Zm-11.719,0a1.172,1.172,0,1,1-1.172,1.172A1.172,1.172,0,0,1,15.313,5.688Zm-4.687,0A1.172,1.172,0,1,1,9.453,6.859,1.172,1.172,0,0,1,10.625,5.688Zm-4.687,0A1.172,1.172,0,1,1,4.766,6.859,1.172,1.172,0,0,1,5.938,5.688Z" transform="translate(0)" fill="#800020"/>
      <path id="Path_9141" data-name="Path 9141" d="M0,151v24.609a3.52,3.52,0,0,0,3.516,3.516H36.484A3.52,3.52,0,0,0,40,175.609V151Zm13.7,16.663a1.172,1.172,0,1,1-1.464,1.83l-5.859-4.687a1.172,1.172,0,0,1,0-1.83l5.859-4.687a1.172,1.172,0,1,1,1.464,1.83l-4.715,3.773Zm10.892-11.514-7.031,16.406a1.172,1.172,0,0,1-2.154-.923l7.031-16.406a1.172,1.172,0,0,1,2.154.923Zm9.03,8.657-5.859,4.688a1.172,1.172,0,1,1-1.464-1.83l4.715-3.772L26.3,160.118a1.172,1.172,0,1,1,1.464-1.83l5.859,4.688A1.172,1.172,0,0,1,33.623,164.806Z" transform="translate(0 -138.281)" fill="#fb5012"/>
    </g>
  </g>
</svg>
