<svg xmlns="http://www.w3.org/2000/svg" width="72.167" height="72.167" viewBox="0 0 72.167 72.167">
  <g id="Group_13100" data-name="Group 13100" transform="translate(-802.5 -2987.771)">
    <g id="Group_12528" data-name="Group 12528" transform="translate(595.5 -2761.129)">
      <g id="Path_8452" data-name="Path 8452" transform="translate(207 5748.9)" fill="none">
        <path d="M36.083,0A36.083,36.083,0,1,1,0,36.083,36.083,36.083,0,0,1,36.083,0Z" stroke="none"/>
        <path d="M 36.08349609375 1.999992370605469 C 31.48137283325195 1.999992370605469 27.01797485351562 2.900886535644531 22.8172721862793 4.677627563476562 C 18.75887298583984 6.394187927246094 15.11363983154297 8.852008819580078 11.98281860351562 11.98281860351562 C 8.852008819580078 15.11363983154297 6.394187927246094 18.75887298583984 4.677627563476562 22.8172721862793 C 2.900886535644531 27.01797485351562 1.999992370605469 31.48137283325195 1.999992370605469 36.08349609375 C 1.999992370605469 40.68561553955078 2.900886535644531 45.14901733398438 4.677627563476562 49.34971618652344 C 6.394187927246094 53.40811920166016 8.852008819580078 57.05335235595703 11.98281860351562 60.18417358398438 C 15.11363983154297 63.31498718261719 18.75887298583984 65.77280426025391 22.8172721862793 67.48936462402344 C 27.01797485351562 69.26610565185547 31.48137283325195 70.16699981689453 36.08349609375 70.16699981689453 C 40.68561553955078 70.16699981689453 45.14901733398438 69.26610565185547 49.34971618652344 67.48936462402344 C 53.40811920166016 65.77280426025391 57.05335235595703 63.31498718261719 60.18417358398438 60.18417358398438 C 63.31498718261719 57.05335235595703 65.77280426025391 53.40811920166016 67.48936462402344 49.34971618652344 C 69.26610565185547 45.14901733398438 70.16699981689453 40.68561553955078 70.16699981689453 36.08349609375 C 70.16699981689453 31.48137283325195 69.26610565185547 27.01797485351562 67.48936462402344 22.8172721862793 C 65.77280426025391 18.75887298583984 63.31498718261719 15.11363983154297 60.18417358398438 11.98281860351562 C 57.05335235595703 8.852008819580078 53.40811920166016 6.394187927246094 49.34971618652344 4.677627563476562 C 45.14901733398438 2.900886535644531 40.68561553955078 1.999992370605469 36.08349609375 1.999992370605469 M 36.08349609375 -7.62939453125e-06 C 56.01186370849609 -7.62939453125e-06 72.16699981689453 16.15512847900391 72.16699981689453 36.08349609375 C 72.16699981689453 56.01186370849609 56.01186370849609 72.16699981689453 36.08349609375 72.16699981689453 C 16.15512847900391 72.16699981689453 -7.62939453125e-06 56.01186370849609 -7.62939453125e-06 36.08349609375 C -7.62939453125e-06 16.15512847900391 16.15512847900391 -7.62939453125e-06 36.08349609375 -7.62939453125e-06 Z" stroke="none" fill="#fb5012"/>
      </g>
    </g>
    <g id="success" transform="translate(762.827 3001.903)">
      <circle id="Ellipse_399" data-name="Ellipse 399" cx="4.941" cy="4.941" r="4.941" transform="translate(70.572 16.989)" fill="#800020"/>
      <path id="Path_9142" data-name="Path 9142" d="M94.424,179.685h0a2.9,2.9,0,0,0-2.894,2.9v2.843a10.146,10.146,0,0,1-20.291,0V182.58a2.895,2.895,0,1,0-5.79,0v2.79a15.91,15.91,0,0,0,6.334,12.719.892.892,0,0,1,.354.711v7.832a.894.894,0,0,0,.894.894H89.573a.894.894,0,0,0,.894-.894V198.88a.891.891,0,0,1,.358-.715A16.176,16.176,0,0,0,97.318,185.2V182.58A2.9,2.9,0,0,0,94.424,179.685Z" transform="translate(-5.793 -163.624)" fill="#fb5012"/>
      <path id="Path_9143" data-name="Path 9143" d="M168.489,8.345a.967.967,0,0,1,.219.664l-.168,3.239a.967.967,0,0,0,1.322.948l2.967-1.179a.966.966,0,0,1,.714,0l2.967,1.179a.967.967,0,0,0,1.322-.948l-.168-3.239a.966.966,0,0,1,.219-.664l2-2.435a.967.967,0,0,0-.485-1.545l-3.115-.875a.967.967,0,0,1-.546-.4L173.994.435a.967.967,0,0,0-1.614,0l-1.751,2.656a.967.967,0,0,1-.546.4l-3.115.875a.967.967,0,0,0-.485,1.545Z" transform="translate(-97.597 0)" fill="#800020"/>
      <path id="Path_9144" data-name="Path 9144" d="M66.684,51.877a1.341,1.341,0,0,0,0-1.9l-5.308-5.308a1.341,1.341,0,0,0-1.9,1.9l5.308,5.308A1.341,1.341,0,0,0,66.684,51.877Z" transform="translate(0 -40.322)" fill="#800020"/>
      <path id="Path_9145" data-name="Path 9145" d="M350.288,44.673a1.341,1.341,0,0,0-1.9,0l-5.308,5.308a1.341,1.341,0,1,0,1.9,1.9l5.308-5.308A1.341,1.341,0,0,0,350.288,44.673Z" transform="translate(-258.255 -40.322)" fill="#800020"/>
    </g>
  </g>
</svg>
