<svg xmlns="http://www.w3.org/2000/svg" width="27.1" height="27.1" viewBox="0 0 27.1 27.1">
  <g id="pinterest" transform="translate(-0.001 -0.002)">
    <circle id="Ellipse_400" data-name="Ellipse 400" cx="13.55" cy="13.55" r="13.55" transform="translate(0.001 0.002)" fill="#cb2027"/>
    <g id="Group_13120" data-name="Group 13120" transform="translate(7.005 5.942)">
      <path id="Path_9172" data-name="Path 9172" d="M36.639,36.8a4.582,4.582,0,0,1-2.258-1.075c-.442,2.317-.981,4.537-2.579,5.7-.494-3.5.724-6.131,1.29-8.923-.964-1.623.116-4.89,2.15-4.085,2.5.99-2.167,6.035.968,6.666,3.273.658,4.609-5.679,2.579-7.741-2.933-2.976-8.537-.068-7.848,4.193.168,1.042,1.244,1.358.43,2.795-1.877-.416-2.437-1.9-2.365-3.87a6.316,6.316,0,0,1,5.7-5.806c3.535-.4,6.853,1.3,7.311,4.623.515,3.753-1.6,7.817-5.376,7.525Z" transform="translate(-29 -24.593)" fill="#f1f2f2"/>
    </g>
  </g>
</svg>
