<svg xmlns="http://www.w3.org/2000/svg" width="49.65" height="49.649" viewBox="0 0 49.65 49.649">
  <g id="process_3_" data-name="process (3)" transform="translate(0 -0.004)">
    <path id="Path_8672" data-name="Path 8672" d="M2.744,19.448a1.454,1.454,0,0,0,1.113-.007L8.208,17.6a1.455,1.455,0,0,0-1.131-2.68l-1.064.449a20.849,20.849,0,0,1,39.272,3.17,1.455,1.455,0,0,0,2.817-.728A23.758,23.758,0,0,0,3.286,14.347L2.8,13.184a1.454,1.454,0,1,0-2.68,1.131l1.836,4.351a1.454,1.454,0,0,0,.792.782Z" transform="translate(0)" fill="#800020"/>
    <path id="Path_8673" data-name="Path 8673" d="M63.536,312.592,61.7,308.241a1.454,1.454,0,0,0-1.906-.774L55.444,309.3a1.455,1.455,0,0,0,1.131,2.68l1.218-.514a20.849,20.849,0,0,1-39.425-2.81,1.455,1.455,0,0,0-2.817.728,23.757,23.757,0,0,0,44.876,3.32l.429,1.016a1.455,1.455,0,1,0,2.68-1.131Z" transform="translate(-14.001 -277.544)" fill="#800020"/>
    <circle id="Ellipse_334" data-name="Ellipse 334" cx="1.5" cy="1.5" r="1.5" transform="translate(23 23.004)" fill="#800020"/>
    <path id="Path_8674" data-name="Path 8674" d="M125.009,116.962a3.636,3.636,0,1,0,0-7.273h-.272a11.91,11.91,0,0,0-.772-1.862l.193-.193a3.637,3.637,0,0,0-5.143-5.143l-.193.193a11.936,11.936,0,0,0-1.862-.772v-.272a3.636,3.636,0,1,0-7.273,0v.272a11.924,11.924,0,0,0-1.862.772l-.193-.193a3.637,3.637,0,1,0-5.143,5.143l.193.193a11.907,11.907,0,0,0-.772,1.862h-.272a3.636,3.636,0,1,0,0,7.273h.272a11.921,11.921,0,0,0,.772,1.862l-.193.193a3.637,3.637,0,0,0,5.143,5.143l.193-.193a11.927,11.927,0,0,0,1.862.772v.272a3.636,3.636,0,1,0,7.273,0v-.272a11.913,11.913,0,0,0,1.862-.772l.193.193a3.637,3.637,0,1,0,5.143-5.143l-.193-.193a11.911,11.911,0,0,0,.772-1.862h.272Zm-11.685.727a4.364,4.364,0,1,1,4.364-4.364A4.369,4.369,0,0,1,113.324,117.689Z" transform="translate(-88.498 -88.497)" fill="#fb5012"/>
  </g>
</svg>
