<svg id="quality_4_" data-name="quality (4)" xmlns="http://www.w3.org/2000/svg" width="49.165" height="49.165" viewBox="0 0 49.165 49.165">
  <path id="Path_5405" data-name="Path 5405" d="M47.1,14.484l-5.019-3L40.951,6.8a4.313,4.313,0,0,0-4.534-3.294l-5.743.445-3.29-2.913a4.306,4.306,0,0,0-5.6,0L18.49,3.95l-5.743-.445A4.289,4.289,0,0,0,8.265,6.63L6.6,11.793l-4.54,2.689A4.3,4.3,0,0,0,.331,19.814L2.29,24.563.332,29.31a4.3,4.3,0,0,0,1.732,5.33l5.014,2.982,1.135,4.7a4.312,4.312,0,0,0,4.534,3.294l5.681-.439,3.352,2.947a4.3,4.3,0,0,0,5.6,0l3.352-2.947,5.681.439a4.281,4.281,0,0,0,4.534-3.294l1.131-4.681,5.019-3a4.3,4.3,0,0,0,1.732-5.33l-1.959-4.747,1.961-4.75A4.3,4.3,0,0,0,47.1,14.484ZM24.582,40.427A15.844,15.844,0,1,1,40.426,24.582,15.862,15.862,0,0,1,24.582,40.427Z" transform="translate(0 0)" fill="#800020"/>
  <path id="Path_5406" data-name="Path 5406" d="M133.963,121a12.963,12.963,0,1,0,12.963,12.963A12.978,12.978,0,0,0,133.963,121Zm8.22,9.661-8.642,8.642a1.44,1.44,0,0,1-2.037,0l-5.762-5.762a1.44,1.44,0,0,1,2.037-2.037l4.743,4.743,7.624-7.624a1.44,1.44,0,1,1,2.037,2.037Z" transform="translate(-109.381 -109.381)" fill="#fb5012"/>
</svg>
