<svg xmlns="http://www.w3.org/2000/svg" width="25.183" height="29.965" viewBox="0 0 25.183 29.965">
  <g id="save-money_3_" data-name="save-money (3)" transform="translate(-0.359)">
    <path id="Path_9079" data-name="Path 9079" d="M104.008,126.908a6.416,6.416,0,1,0,6.416-6.416A6.416,6.416,0,0,0,104.008,126.908Zm6.416.405a2.108,2.108,0,0,1-.535-4.151v-.542a.445.445,0,0,1,.889,0v.515a2.087,2.087,0,0,1,1.739,2.071.439.439,0,0,1-.879,0,1.216,1.216,0,1,0-1.214,1.217,2.105,2.105,0,0,1,.354,4.178v.53a.445.445,0,0,1-.889,0v-.557a2.128,2.128,0,0,1-1.585-2.044.45.45,0,0,1,.9,0,1.22,1.22,0,0,0,1.087,1.21.466.466,0,0,1,.069-.006.449.449,0,0,1,.1.011,1.217,1.217,0,0,0-.035-2.433Zm0,0" transform="translate(-97.065 -112.838)" fill="#800020"/>
    <path id="Path_9080" data-name="Path 9080" d="M83.489,353.01l-.01.005-4.128,1.95a3.189,3.189,0,0,1,.058.694.444.444,0,0,1-.444.432h-.013l-6.041-.166a.445.445,0,0,1,.024-.889l5.553.153a2.293,2.293,0,0,0-2.193-1.9l-3.675-.1a4.838,4.838,0,0,1-2.082-.538l-.374-.194a5.649,5.649,0,0,0-5.767.325l-.147,5.346.631-.338a2.746,2.746,0,0,1,2.048-.224l6.237,1.751a5.825,5.825,0,0,0,3.569-.4l8.64-5.589a1.616,1.616,0,0,0-1.886-.313Zm0,0" transform="translate(-59.832 -329.464)" fill="#fb5012"/>
    <path id="Path_9081" data-name="Path 9081" d="M.359,348.5l.219-7.954,3.141.087L3.5,348.591Zm0,0" transform="translate(0 -318.919)" fill="#800020"/>
    <path id="Path_9082" data-name="Path 9082" d="M198.475,5.272V.445a.445.445,0,1,0-.889,0V5.272a.445.445,0,1,0,.889,0Zm0,0" transform="translate(-184.699)" fill="#800020"/>
    <path id="Path_9083" data-name="Path 9083" d="M258.475,42.731V40.445a.445.445,0,0,0-.889,0v2.287a.445.445,0,0,0,.889,0Zm0,0" transform="translate(-240.887 -37.459)" fill="#800020"/>
    <path id="Path_9084" data-name="Path 9084" d="M138.475,42.731V40.445a.445.445,0,1,0-.889,0v2.287a.445.445,0,1,0,.889,0Zm0,0" transform="translate(-128.51 -37.459)" fill="#800020"/>
  </g>
</svg>
