<svg xmlns="http://www.w3.org/2000/svg" width="29.606" height="29.565" viewBox="0 0 29.606 29.565">
  <g id="upload" transform="translate(0 -0.358)">
    <g id="Group_12826" data-name="Group 12826" transform="translate(0 18.416)">
      <g id="Group_12825" data-name="Group 12825">
        <path id="Path_8920" data-name="Path 8920" d="M27.293,312.642v8.038a1.158,1.158,0,0,1-1.156,1.156H3.469a1.158,1.158,0,0,1-1.156-1.156v-8.038H0v8.038a3.473,3.473,0,0,0,3.469,3.469H26.137a3.473,3.473,0,0,0,3.469-3.469v-8.038Z" transform="translate(0 -312.642)" fill="#0e4bbe"/>
      </g>
    </g>
    <g id="Group_12828" data-name="Group 12828" transform="translate(7.616 0.358)">
      <g id="Group_12827" data-name="Group 12827">
        <path id="Path_8921" data-name="Path 8921" d="M138.9.358l-7.187,7.187,1.636,1.636,4.395-4.395V22.81h2.313V4.786l4.395,4.395,1.636-1.636Z" transform="translate(-131.716 -0.358)" fill="#0e4bbe"/>
      </g>
    </g>
  </g>
</svg>
