<svg xmlns="http://www.w3.org/2000/svg" width="54.627" height="54.515" viewBox="0 0 54.627 54.515">
  <g id="XMLID_674_" transform="translate(0 -0.528)">
    <path id="XMLID_688_" d="M21.925,249.04l-4.843-2.451a3.544,3.544,0,0,0-3.218,6.3l-7.3-3.816V242.46a6.1,6.1,0,0,0-6.1-6.1H0v15.78L11.641,263v2.718H25.427V254.739a6.387,6.387,0,0,0-3.5-5.7Z" transform="translate(0 -210.671)" fill="#800020"/>
    <path id="XMLID_691_" d="M298.646,236.362a6.1,6.1,0,0,0-6.1,6.1v6.617l-7.3,3.816a3.544,3.544,0,0,0-3.218-6.3l-4.843,2.451a6.387,6.387,0,0,0-3.5,5.7v10.975h13.786V263l11.641-10.855v-15.78Z" transform="translate(-244.481 -210.672)" fill="#800020"/>
    <path id="XMLID_698_" d="M165.863,22.366a10.919,10.919,0,1,0-10.919-10.919A10.931,10.931,0,0,0,165.863,22.366Zm-1.6-13.9h3.2v5.968h-3.2Z" transform="translate(-138.412)" fill="#fb5012"/>
    <path id="XMLID_700_" d="M261.434,207.54l4.761,8.275,2.608-4.608,5.3.062-4.042-7.025A14.054,14.054,0,0,1,261.434,207.54Z" transform="translate(-233.54 -181.981)" fill="#800020"/>
    <path id="XMLID_701_" d="M138.473,204.244l-4.042,7.025,5.3-.062,2.608,4.608,4.761-8.275a14.054,14.054,0,0,1-8.622-3.3Z" transform="translate(-120.088 -181.981)" fill="#800020"/>
  </g>
</svg>
